<?xml version="1.0" encoding="UTF-8" standalone="no"?>
<svg
   width="100%"
   height="100%"
   id="svgdata"
   style="overflow: visible"
   version="1.1"
   sodipodi:docname="yap-presidential.svg"
   inkscape:version="1.3.2 (091e20e, 2023-11-25, custom)"
   xmlns:inkscape="http://www.inkscape.org/namespaces/inkscape"
   xmlns:sodipodi="http://sodipodi.sourceforge.net/DTD/sodipodi-0.dtd"
   xmlns="http://www.w3.org/2000/svg"
   xmlns:svg="http://www.w3.org/2000/svg">
  <defs
     id="svgdefinitions" />
  <sodipodi:namedview
     id="namedview66"
     pagecolor="#ffffff"
     bordercolor="#000000"
     borderopacity="0.25"
     inkscape:showpageshadow="2"
     inkscape:pageopacity="0.0"
     inkscape:pagecheckerboard="0"
     inkscape:deskcolor="#d1d1d1"
     inkscape:zoom="256"
     inkscape:cx="2.2910156"
     inkscape:cy="0.640625"
     inkscape:window-width="2560"
     inkscape:window-height="1351"
     inkscape:window-x="1341"
     inkscape:window-y="245"
     inkscape:window-maximized="1"
     inkscape:current-layer="outlines"
     showgrid="false" />
  <g
     id="outlines"
     style="stroke:#181922;stroke-width:1.125px"
     transform="matrix(1.3161329,0,0,1.3161329,-5.3816955,-1.8125193)">
    <path
       id="DF"
       d="m 478.89453,152.98047 c -0.15176,0.002 -0.31636,0.0822 -0.49414,0.24023 -0.3,0.25 -0.54102,0.32946 -0.54101,0.18946 0,-0.14 -0.20852,-0.0911 -0.47852,0.1289 -0.26,0.21 -0.5807,0.28063 -0.7207,0.14063 -0.14,-0.14 -0.13024,0.0594 0.01,0.43945 0.33,0.87 1.24969,1.58055 1.67969,1.31055 0.18,-0.1 0.69109,0.25078 1.12109,0.80078 0.57,0.7 1.12875,0.99953 1.96875,1.01953 1.05,0.03 1.20102,0.15961 1.29102,1.09961 0.07,0.76 -0.17078,1.40086 -0.80078,2.13086 l -0.91016,1.03906 0.89063,0.78125 c 0.49,0.42 0.89062,0.92891 0.89062,1.12891 0,0.55 1.08844,1.01078 1.89844,0.80078 0.53239,-0.18971 1.00191,-0.52666 1.35156,-0.9707 0.34,-0.43 0.98945,-0.87047 1.43945,-0.98047 0.71,-0.18 0.82008,-0.42844 0.83008,-1.89844 0,-1.57 0.0888,-1.72133 1.29883,-2.36133 1.22,-0.64 1.26117,-0.71008 0.70117,-1.33008 -0.63174,-0.50741 -1.36033,-0.8812 -2.14062,-1.09961 -1,-0.3 -1.70047,-0.76031 -1.98047,-1.32031 -0.3,-0.56667 -0.67558,-0.81667 -1.12891,-0.75 -3.11999,0.51 -4.80117,0.47086 -5.45117,-0.11914 -0.318,-0.27825 -0.52573,-0.41819 -0.72461,-0.41992 z m 16.51563,4.77539 c -0.9932,0 -1.79297,0.79977 -1.79297,1.79297 v 8.36523 c 0,0.9932 0.79977,1.79297 1.79297,1.79297 h 22.00976 c 0.9932,0 1.79297,-0.79977 1.79297,-1.79297 v -8.36523 c 0,-0.9932 -0.79977,-1.79297 -1.79297,-1.79297 z"
       sodipodi:nodetypes="scscsccccccccscccccccccccssssssssss" />
    <path
       id="BL"
       d="m 129.51953,182.40039 c -0.12667,0 -0.19255,0.0535 -0.19922,0.16016 0,0.2 -0.15937,0.2489 -0.35937,0.1289 -0.2,-0.12 -0.35157,-0.0401 -0.35156,0.16993 0,0.20999 -0.15961,0.29968 -0.34961,0.17968 -0.2,-0.12 -0.35938,-0.0288 -0.35938,0.20117 0,0.25 -0.40055,0.35 -1.06055,0.25 -0.85,-0.12 -1.05078,-0.0302 -1.05078,0.50977 0,0.37 -0.13883,0.59023 -0.29883,0.49023 -0.16,-0.1 -0.57015,0.46024 -0.91015,1.24024 -0.62,1.39 -0.65953,1.40859 -2.26953,1.30859 -1.35,-0.08 -1.65977,0.021 -1.75977,0.54102 -0.1,0.5 -0.36039,0.61 -1.15039,0.5 -0.85,-0.13 -1.02125,-0.0299 -1.03125,0.58008 0,1.32999 -0.42867,2.35968 -0.88867,2.17968 -0.26,-0.1 -0.63063,0.28039 -0.89063,0.90039 -0.39,0.94 -0.57914,1.04969 -1.61914,0.92969 -0.65,-0.08 -1.18164,1.6e-4 -1.18164,0.16016 0,0.17 -0.15961,0.19984 -0.34961,0.0898 -0.2,-0.12 -0.34961,-0.0401 -0.34961,0.16992 0,0.21 -0.15937,0.29969 -0.35937,0.17969 -0.2,-0.12 -0.34961,-0.0403 -0.34961,0.17969 0,0.21 -0.16156,0.29992 -0.35156,0.16992 -0.2,-0.12 -0.35938,0.0511 -0.35938,0.37109 0,0.4 -0.18411,0.52558 -0.55078,0.37891 -0.36667,-0.13333 -0.49844,-0.0593 -0.39844,0.2207 0.09,0.25 0.3386,0.39938 0.5586,0.35938 0.22,-0.04 0.40039,0.10031 0.40039,0.32031 0,0.23 0.1007,0.29969 0.2207,0.17969 0.38,-0.37 1.15992,0.92164 1.16992,1.93164 0.01,0.76 0.14875,0.9 0.71875,0.75 0.5,-0.13 0.70117,-0.002 0.70117,0.4082 0,0.33 0.16891,0.49133 0.37891,0.36133 0.69,-0.42 1.37086,1.03875 1.38086,2.96875 0.01,1.83 -0.0191,1.8807 -0.86914,1.7207 -0.59333,-0.12 -0.88753,-0.01 -0.88086,0.33008 0,0.28 -0.18039,0.39977 -0.40039,0.25977 -0.28,-0.17 -0.31867,0.36039 -0.13867,1.90039 0.26,2.26 -0.0212,4.42914 -0.53125,4.11914 -0.16,-0.1 -0.43914,0.0709 -0.61914,0.38086 -0.18,0.31 -0.46063,0.54906 -0.64063,0.53906 -0.18,-0.01 -0.29929,0.12031 -0.2793,0.32031 0.02,0.2 0.0601,0.76 0.0801,1.25 0.03,0.5 0.21016,0.80141 0.41016,0.69141 0.2,-0.11 0.34961,-0.0709 0.34961,0.11914 0,0.5 1.47859,0.0608 2.30859,-0.69922 0.96,-0.86 2.98,-1.28133 3,-0.61133 0.01,1.1 1.38063,-1.37929 1.39063,-2.52929 0,-1.56 0.52953,-2.09961 2.01953,-2.09961 1.1,0 1.16016,0.07 1.16016,1.25 0,1.23 0.021,1.23922 0.79101,0.69922 1.1,-0.76 2.38867,-0.71039 2.38867,0.0996 0,0.50999 0.2,0.61999 1,0.5 0.9,-0.13 1.04024,-0.0198 1.24024,0.99023 0.12,0.62 0.23047,1.92109 0.23047,2.87109 0,1.6 -0.0688,1.73867 -0.79883,1.63868 -0.57,-0.08 -0.82039,0.0816 -0.90039,0.60156 -0.09,0.63 0.0697,0.67836 1.67968,0.56836 1.04,-0.07 1.7793,0.0302 1.7793,0.24023 0,0.19 0.32117,0.27016 0.70117,0.16016 0.4,-0.1 0.70899,0.001 0.70899,0.20117 0,0.7 1.02086,-0.002 1.13086,-0.76172 0.06,-0.43 0.40859,-0.81844 0.80859,-0.89844 0.56828,-0.19123 1.07837,-0.52593 1.48047,-0.9707 0.82,-0.88 2.2207,-1.14992 2.2207,-0.41992 0,0.33 0.0997,0.33 0.42969,0 0.23,-0.23 0.94984,-0.41992 1.58984,-0.41992 1,0 1.16016,0.11914 1.16016,0.86914 0,0.63 0.1493,0.80992 0.5293,0.66992 0.29,-0.12 0.53125,-0.0188 0.53125,0.20117 0,0.23 0.15961,0.31922 0.34961,0.19922 0.2,-0.13 0.35937,0.19953 0.35937,0.76953 l 0.01,1 0.70117,-0.88867 c 0.60487,-0.86428 1.13655,-1.77791 1.58984,-2.73047 l 0.89063,-1.85938 h 1.88867 c 1.17,0 2.04102,-0.18046 2.29101,-0.48046 0.41052,-0.3611 0.91113,-0.60237 1.44922,-0.69922 0.77,-0.15 1.05078,-0.41117 1.05078,-0.95117 0,-1.32 0.6593,-2.09961 1.7793,-2.09961 0.76,0 1.04102,0.16914 1.04102,0.61914 0,0.52 0.27992,0.6 1.91992,0.5 l 1.91992,-0.11914 0.10938,1.52929 c 0.07,0.99 0.27078,1.50141 0.55078,1.44141 0.24,-0.05 0.43945,0.0793 0.43945,0.2793 0,0.2 0.14031,0.29968 0.32031,0.17968 0.17,-0.1 0.38852,0.10071 0.47852,0.47071 0.13,0.5 0.40156,0.62023 1.10156,0.49023 0.88,-0.17 0.92969,-0.10117 0.92969,1.29883 0,0.88 0.12961,1.38 0.34961,1.25 0.2,-0.12 0.34961,-0.0401 0.34961,0.16992 0,0.21 0.15961,0.29969 0.34961,0.17969 0.2,-0.12 0.36132,0 0.36132,0.25 0,0.34 0.39844,0.43984 1.39844,0.33984 1.41,-0.13 1.42188,-0.1289 1.42188,1.1211 0,0.68 0.15961,1.3507 0.34961,1.4707 0.2,0.12 0.34961,0.53945 0.34961,0.93945 0,0.6 -0.17079,0.70031 -1.05078,0.57031 -0.75,-0.10999 -1.0586,-0.01 -1.0586,0.33008 0,0.27 -0.16133,0.39953 -0.36133,0.26953 -0.19,-0.12 -0.34961,-0.0403 -0.34961,0.17969 0,0.22 -0.15961,0.29992 -0.34961,0.16992 -0.2,-0.12 -0.36086,-0.0797 -0.38085,0.0703 -0.03,0.5 -0.67844,5.85953 -0.89844,7.51953 l -0.21094,1.58984 0.84961,-0.79883 c 0.48,-0.43 1.19961,-0.79101 1.59961,-0.79101 0.84,0 1.16016,-0.63055 1.16016,-2.31055 0,-0.97 0.39132,-1.60899 2.11132,-3.45898 l 2.11914,-2.25977 v -2.70117 c 0,-2.07 0.1193,-2.74844 0.5293,-2.89844 0.8,-0.31 0.65148,-2.00078 -0.22852,-2.55078 -0.69999,-0.44 -0.74078,-0.66992 -0.55078,-3.66992 0.19,-2.82 0.31032,-3.28969 1.07032,-3.92969 0.45163,-0.36983 0.81715,-0.83535 1.07031,-1.36133 0.11,-0.34 0.42922,-0.60937 0.69922,-0.60937 0.55,0 1.01968,-0.85922 0.67969,-1.19922 -0.12,-0.12 -0.55852,-0.21094 -0.97852,-0.21094 -0.43,0 -1.27086,-0.24859 -1.88086,-0.55859 -1.4,-0.7 -1.5,-2.10118 -0.25,-3.45117 l 0.85938,-0.92969 h -0.87891 c -0.48,0 -1.34992,-0.25102 -1.91992,-0.54102 -0.7,-0.36 -1.04769,-0.40223 -1.04102,-0.1289 0,0.27 -0.63023,0.35023 -1.99023,0.24023 -1.56,-0.13 -2.11868,-0.34953 -2.63868,-1.01953 -0.56999,-0.74 -0.65015,-0.76141 -0.66015,-0.19141 0,0.44667 -0.20777,0.61333 -0.62109,0.5 -0.55,-0.15 -0.6,0.0814 -0.5,1.94141 0.14999,2.6 -0.52977,5.3193 -1.25977,5.0293 -0.32,-0.12 -0.57922,0.0795 -0.69922,0.51953 -0.17,0.64 -0.47969,0.70117 -3.42969,0.70117 -2.99999,0 -3.31054,-0.0713 -4.06054,-0.86133 -0.69,-0.73 -0.79086,-1.12977 -0.63086,-2.50976 0.1,-0.9 0.50039,-2.07915 0.90039,-2.61915 l 0.73047,-0.98046 -1.08008,-0.22071 c -0.6,-0.12 -1.60047,-0.21875 -2.23047,-0.21875 -1.29,0 -1.82,-0.45976 -2,-1.75976 -0.12548,-0.57398 -0.5085,-1.05817 -1.03906,-1.31055 -0.77,-0.37 -0.96063,-0.75078 -1.14063,-2.30078 -0.11756,-0.87942 -0.11756,-1.77097 0,-2.65039 0.19,-0.73 0.0808,-0.79883 -1.19922,-0.79883 -0.86006,-0.0281 -1.70756,-0.21534 -2.5,-0.55078 -0.93,-0.46 -1.12109,-0.75977 -1.12109,-1.75977 v -1.20898 h -3.48047 c -4.18,0 -5.72969,-0.27125 -5.92969,-1.03125 -0.13,-0.5 -1.19992,-1.17922 -1.66992,-1.19922 z m 57.73438,29.63281 c -0.9932,0 -1.79297,0.79977 -1.79297,1.79297 v 8.36524 c 0,0.9932 0.79977,1.79296 1.79297,1.79297 h 22.00976 c 0.9932,0 1.79297,-0.79977 1.79297,-1.79297 v -8.36524 c 0,-0.9932 -0.79977,-1.79297 -1.79297,-1.79297 z m -22.21485,23.28711 c -0.62,0 -0.61976,0.20039 -0.50976,0.90039 0.08,0.54 0.28093,1.06993 0.46093,1.16992 0.18,0.1 0.29883,0.56954 0.29883,1.01954 0,0.64 0.16016,0.80015 0.66016,0.66015 0.47,-0.12 0.73062,0.0704 0.89062,0.65039 0.18,0.68 0.28055,0.72883 0.56055,0.29883 0.23,-0.37 0.18031,-0.60859 -0.17969,-0.80859 -0.58,-0.33 -0.70015,-2.22078 -0.16015,-2.55078 0.86,-0.53 0.28984,-1.17102 -1.16016,-1.29102 -0.36667,-0.0333 -0.65466,-0.0488 -0.86133,-0.0488 z M 162.73047,243 c -0.16,0.02 -0.28753,0.14247 -0.38086,0.36914 -0.22,0.57 0.30062,0.73117 0.64062,0.20117 0.10456,-0.18089 0.0512,-0.41304 -0.12109,-0.53125 -0.04,-0.0305 -0.0887,-0.0438 -0.13867,-0.0391 z m 0.21875,1.30078 c -0.0733,0.0133 -0.11247,0.11216 -0.11914,0.29883 0.0133,0.26667 0.0905,0.3438 0.23047,0.23047 0.1311,-0.12924 0.1311,-0.34147 0,-0.4707 -0.0333,-0.0333 -0.0663,-0.0488 -0.0996,-0.0488 z m 0.0117,1.08008 c -0.0733,0 -0.11443,0.0958 -0.1211,0.28906 0.0133,0.26667 0.0905,0.3438 0.23047,0.23047 0.1311,-0.12924 0.1311,-0.34146 0,-0.4707 -0.0333,-0.0333 -0.0663,-0.0488 -0.0996,-0.0488 z m -9.31055,4.20898 c -0.13672,-0.004 -0.27325,0.0199 -0.40039,0.0703 -0.26667,0.12 -0.19263,0.18898 0.2207,0.20898 0.37,0.02 0.57899,-0.0697 0.45899,-0.17969 -0.0667,-0.0667 -0.1593,-0.0996 -0.2793,-0.0996 z" />
    <path
       id="KO"
       d="m 75.039062,212.08398 c -0.993199,0 -1.792968,0.79977 -1.792968,1.79297 v 8.36524 c 0,0.9932 0.799769,1.79297 1.792968,1.79297 h 22.009766 c 0.993199,0 1.792969,-0.79977 1.792969,-1.79297 v -8.36524 c 0,-0.9932 -0.79977,-1.79297 -1.792969,-1.79297 z m -41.140624,11.73633 c -0.667382,0 -1.143454,0.43232 -1.431641,1.29688 -0.176227,0.56395 -0.445931,1.09498 -0.796875,1.57031 -0.674966,0.67497 -0.508258,0.87818 0.902344,1.11328 0.728052,0.12134 1.721434,0.44768 2.199218,0.7207 1.061744,0.59155 2.700551,0.70585 3.003907,0.2129 0.121342,-0.19719 0.567718,-0.35547 1,-0.35547 0.509781,-0.0435 0.977539,-0.30118 1.289062,-0.70703 0.303355,-0.41712 0.910182,-0.70508 1.494141,-0.70508 1.092079,0 1.313219,-0.50075 0.365234,-0.84961 -0.571271,-0.23538 -1.129836,-0.50264 -1.669922,-0.80274 -0.583959,-0.31852 -1.857388,-0.64486 -2.828125,-0.7207 -0.970736,-0.0758 -2.100464,-0.30305 -2.517578,-0.50781 -0.311129,-0.16539 -0.657532,-0.25645 -1.009765,-0.26563 z m 14.28125,3.86719 c -0.08762,7.6e-4 -0.169616,0.0408 -0.226563,0.10742 -0.13651,0.12893 -0.03129,0.22656 0.226563,0.22656 0.257851,0 0.3633,-0.0976 0.234374,-0.22656 -0.05832,-0.0638 -0.140144,-0.10065 -0.226562,-0.0996 z m 5.380859,0.84961 c -0.484377,0.003 -1.019531,0.62395 -1.019531,1.36523 0,0.77356 0.894909,0.66017 1.425781,-0.18164 0.280603,-0.44745 0.272105,-0.7218 -0.03125,-1.01758 -0.0977,-0.10372 -0.232647,-0.16303 -0.375,-0.16601 z m -24.189453,2.13867 c -0.328633,0 -0.091,0.37833 0.71289,1.13672 0.743221,0.69013 1.122217,1.45766 1.289063,2.58008 l 0.455078,2.98828 c 0.333691,2.22966 1.108362,2.89543 1.722656,1.5 0.27302,-0.62188 0.713027,-0.83419 2.078125,-0.9707 1.66087,-0.16685 2.790547,-1.06055 1.34961,-1.06055 -1.205837,0 -2.904297,-1.0617 -2.904297,-1.8125 0,-0.7508 -0.774378,-1.71484 -1.388672,-1.71484 -0.204765,0 -0.378906,-0.31049 -0.378906,-0.69727 0.0053,-0.46009 -0.484799,-0.92708 -1.470703,-1.40234 -0.452773,-0.26504 -0.949118,-0.45061 -1.464844,-0.54688 z m 14.333984,0.55274 c -0.252793,0.0101 -0.581857,0.0358 -0.986328,0.0762 -0.985904,0.10617 -2.486314,0.54646 -3.328125,0.98633 -1.410602,0.73563 -1.480215,0.83529 -0.888672,1.26757 0.356443,0.26544 0.956972,0.46875 1.34375,0.46875 0.796308,0 1.986328,0.96452 1.986328,1.60157 0,0.2351 0.235479,0.62841 0.53125,0.87109 0.295772,0.24268 0.53125,0.89537 0.53125,1.44141 0,0.82664 -0.266715,1.14455 -1.404297,1.72851 -0.588289,0.32921 -1.222161,0.56945 -1.880859,0.71289 -0.401946,0 -1.304687,1.35791 -1.304687,1.95703 0,0.0834 0.577673,0.15235 1.27539,0.15235 0.993488,0 1.516297,0.26422 2.38086,1.18945 1.210182,1.35434 3.118123,1.84293 4.830078,1.23633 1.501608,-0.50054 2.80664,-1.63752 2.80664,-2.44141 0,-0.33369 0.251333,-0.7046 0.554688,-0.81836 0.932817,-0.36402 2.267578,-0.2426 2.267578,0.19727 0,0.6598 1.462439,2.04687 2.160156,2.04687 0.348859,0 1.15397,0.44006 1.791016,0.97852 0.64463,0.53087 1.470186,1.13703 1.841797,1.3418 0.379194,0.21234 0.850151,0.6833 1.0625,1.0625 0.811475,1.4561 1.667215,1.91796 3.585937,1.91796 1.440937,0 1.8355,-0.11276 1.691406,-0.48437 -0.197181,-0.53087 -1.645327,-1.2832 -2.449218,-1.2832 -0.697717,0 -0.690134,-2.45735 0,-3.375 0.720468,-0.94799 0.682216,-2.52384 -0.07617,-2.92578 -0.348859,-0.1896 -1.743819,-0.56901 -3.09375,-0.84961 -1.355361,-0.28256 -2.676927,-0.70813 -3.94336,-1.26758 -1.744292,-0.88732 -2.731061,-0.93945 -4.111328,-0.22656 -1.440937,0.75838 -2.17614,0.6595 -2.835937,-0.33399 -0.621878,-0.96315 -0.774098,-3.01758 -0.212891,-3.01758 1.061743,0 -0.07581,-1.45003 -1.683594,-2.125 -0.528232,-0.27969 -0.952824,-0.71964 -1.21289,-1.25781 -0.303355,-0.65221 -0.454731,-0.84329 -1.220703,-0.82812 z" />
    <path
       d="m 86.8,85.14 c 0.12,-0.19 0.74,-0.35 1.37,-0.35 0.62,0 1.29,-0.15 1.47,-0.33 0.19,-0.18 0.9,-0.38 1.57,-0.44 0.9,-0.08 1.27,-0.3 1.36,-0.82 0.07,-0.38 0.33,-1.18 0.58,-1.76 0.6,-1.4 1.46,-4.28 1.73,-5.86 0.13,-0.7 0.54,-1.92 0.93,-2.71 0.38,-0.8 0.7,-1.58 0.7,-1.73 0,-0.16 0.63,-1.6 1.4,-3.2 0.78,-1.6 1.43,-3.1 1.44,-3.35 0.02,-0.24 0.33,-0.91 0.7,-1.5 a 67,67 0 0 0 3.37,-6.7 c 0.73,-1.68 3.37,-4.26 6.4,-6.25 1.22,-0.8 2.2,-1.61 2.2,-1.81 0,-0.2 0.43,-0.8 0.95,-1.35 0.93,-0.97 0.94,-0.99 0.26,-1.73 -0.54,-0.6 -0.67,-1.29 -0.67,-3.52 0,-1.74 0.16,-2.93 0.44,-3.2 0.24,-0.25 0.44,-0.8 0.44,-1.22 0,-0.42 0.24,-0.96 0.53,-1.2 0.8,-0.66 0.67,-1.2 -1.06,-4.66 a 23,23 0 0 1 -1.59,-3.64 c 0,-0.33 -0.75,-0.5 -2.64,-0.58 -1.46,-0.07 -2.65,0.02 -2.65,0.18 0,0.17 -0.24,0.21 -0.53,0.1 -0.4,-0.15 -0.53,0.06 -0.53,0.87 0,0.59 -0.13,0.99 -0.29,0.89 -0.16,-0.1 -0.57,0.45 -0.92,1.23 q -0.63,1.42 -1.12,1.23 -0.48,-0.18 -0.49,0.55 0.01,0.75 -0.53,0.52 c -0.29,-0.1 -0.53,-0.02 -0.53,0.2 q -0.02,0.35 -0.23,0.17 c -0.37,-0.36 -1.53,0.85 -1.53,1.58 0,0.53 -0.28,0.65 -1.54,0.65 -1.38,0 -1.75,-0.2 -3.6,-1.94 -1.12,-1.07 -2.31,-1.94 -2.63,-1.94 -0.33,0 -1.25,-0.48 -2.06,-1.06 -1.66,-1.2 -1.87,-2.2 -0.76,-3.61 0.61,-0.78 0.63,-0.95 0.18,-1.33 -0.6,-0.49 -0.7,-2.67 -0.2,-3.99 0.26,-0.67 0.67,-0.9 1.94,-1.1 0.89,-0.13 1.61,-0.37 1.61,-0.53 0,-0.16 -0.71,-0.63 -1.59,-1.04 -1.68,-0.8 -2.05,-1.68 -1.03,-2.52 0.47,-0.4 0.36,-0.55 -0.89,-1.12 -1.6,-0.73 -1.8,-1.43 -0.7,-2.59 0.6,-0.65 0.65,-0.9 0.3,-1.67 -0.4,-0.9 -1.73,-1.57 -1.73,-0.88 0,0.2 -0.41,0.28 -0.91,0.18 -0.58,-0.1 -0.98,0 -1.1,0.31 q -0.18,0.5 -2.02,0.49 c -1,0 -1.98,0.13 -2.16,0.3 -0.19,0.15 -1,0.48 -1.81,0.7 -1.09,0.31 -1.51,0.63 -1.6,1.2 -0.08,0.58 -0.5,0.88 -1.7,1.22 -2.85,0.81 -3.12,1.07 -3.24,3.07 -0.08,1.32 -0.25,1.82 -0.68,1.9 -0.84,0.16 -4.15,-3.2 -4.4,-4.47 -0.17,-0.81 -0.43,-1.08 -1.15,-1.17 -0.72,-0.09 -0.95,-0.32 -1.04,-1.07 -0.08,-0.7 -0.31,-0.97 -0.8,-0.97 -0.38,0 -1.04,-0.19 -1.47,-0.41 L 61.23,10.7 C 60.93,10.57 60.65,10.13 60.59,9.74 60.51,9.24 60.13,8.94 59.3,8.79 A 3.3,3.3 0 0 1 57.7,8.06 C 57.4,7.69 57.1,7.64 56.63,7.89 55.12,8.7 51.08,8.19 49.83,7.04 49.06,6.32 48.89,6.3 46.92,6.71 44.41,7.24 42.09,7.3 41.63,6.86 41.17,6.42 34.24,6.95 33.61,7.47 c -0.3,0.25 -0.44,0.78 -0.34,1.3 0.1,0.49 -0.01,1.1 -0.24,1.38 q -0.42,0.5 -0.04,0.72 c 0.2,0.13 0.37,0.85 0.37,1.6 0,1.15 -0.26,1.63 -1.7,3.1 a 10,10 0 0 1 -3.6,2.46 l -1.93,0.71 0.12,2.67 c 0.11,2.48 0.06,2.73 -0.8,3.58 -1.05,1.06 -1.1,1.24 -0.4,1.24 0.28,0 1.09,0.53 1.8,1.18 1.14,1.04 1.27,1.34 1.17,2.65 -0.1,1.34 0,1.54 0.94,2.03 1.57,0.8 2.28,1.57 2.28,2.43 0,0.46 0.36,0.96 0.91,1.25 a 4.7,4.7 0 0 1 2.33,3.44 c 0.11,1.12 0.12,1.12 1.12,0.6 a 5,5 0 0 1 1.47,-0.53 c 0.24,0 0.54,-0.24 0.65,-0.53 q 0.2,-0.53 1.63,-0.53 c 1.2,0 1.49,-0.14 1.77,-0.88 0.31,-0.82 0.49,-0.88 2.72,-0.85 2.66,0.03 4.97,0.99 5.54,2.3 0.18,0.41 0.96,0.97 1.72,1.25 1.05,0.38 1.6,0.9 2.2,2.02 0.45,0.83 1.07,1.8 1.4,2.15 0.86,0.96 0.61,4.56 -0.35,5.09 -1.07,0.6 -1.25,1.02 -0.69,1.64 0.62,0.68 0.66,1.75 0.11,2.95 -0.3,0.67 -0.3,1.13 0.03,1.93 0.39,0.94 0.94,1.3 2.93,1.94 0.76,0.24 0.8,1.39 0.08,1.99 -0.57,0.47 -0.48,1.15 0.4,2.96 0.27,0.56 0.49,1.64 0.49,2.4 0,1.18 -0.16,1.46 -1.23,2.09 -0.68,0.4 -1.24,0.8 -1.24,0.9 0,0.28 2.47,2.5 3.02,2.72 0.29,0.1 0.67,0.6 0.86,1.08 l 0.33,0.88 h 6.95 l 6.94,-0.02 1.46,1.43 a 7,7 0 0 0 1.78,1.43 c 0.63,0 2.3,1.91 2.3,2.64 0,0.41 0.56,1.3 1.25,1.96 0.7,0.67 1.51,1.75 1.82,2.4 0.31,0.65 0.91,1.3 1.34,1.47 0.43,0.17 0.88,0.54 1,0.85 0.23,0.62 2.17,0.78 2.52,0.2"
       id="CM" />
    <path
       d="m 423.36,100.9 c 0.25,0.09 0.56,0 0.68,-0.21 0.13,-0.2 0.54,-0.38 0.91,-0.38 0.37,0 1.22,-0.47 1.88,-1.06 a 6,6 0 0 1 1.51,-1.06 c 0.17,0 1.26,-0.72 2.42,-1.6 4.64,-3.52 6.17,-3.51 12,0.03 1.27,0.77 1.8,0.86 5.35,0.87 4.5,0 5.2,0.2 7.62,2.13 1.36,1.08 2.07,1.4 3.1,1.4 0.74,0 1.45,-0.16 1.57,-0.35 0.12,-0.2 1.04,-0.36 2.05,-0.36 1.98,0 2.46,-0.2 2.8,-1.12 0.13,-0.35 0.79,-0.7 1.57,-0.84 a 17,17 0 0 0 3.2,-1.08 11,11 0 0 1 2.36,-0.84 c 0.27,0 0.6,-0.16 0.72,-0.35 0.12,-0.2 0.52,-0.35 0.9,-0.35 0.38,0 0.68,-0.16 0.68,-0.36 0,-0.2 -0.23,-0.35 -0.5,-0.35 -0.29,0 -0.65,-0.2 -0.8,-0.46 -0.16,-0.25 -0.8,-0.82 -1.43,-1.26 -1.05,-0.73 -1.15,-0.95 -1.15,-2.69 0,-1.7 -0.1,-1.97 -1.07,-2.65 a 8,8 0 0 0 -2.03,-1.02 c -0.89,-0.24 -0.96,-0.4 -1.06,-2.36 -0.13,-2.77 -0.48,-2.96 -5.87,-3.32 -6,-0.39 -8.66,-1.26 -8.66,-2.83 0,-0.92 -1.25,-2.3 -2.73,-3 q -3.61,-1.72 -3.62,-3.56 -0.01,-1.1 -0.74,-1.6 c -0.6,-0.39 -0.76,-0.92 -0.86,-2.77 l -0.13,-2.28 -3.1,-0.61 c -3.83,-0.77 -9.98,-1.3 -10.23,-0.89 -0.1,0.17 -0.6,0.26 -1.12,0.2 a 3,3 0 0 0 -1.37,0.18 c -0.24,0.15 -1.41,0.23 -2.6,0.19 -1.79,-0.07 -2.26,0.04 -2.74,0.62 -0.77,0.93 -2.46,1.97 -2.84,1.73 -0.16,-0.1 -0.5,0.05 -0.74,0.34 -0.3,0.38 -1.16,0.52 -3,0.52 -2.9,0 -3.47,-0.37 -3.28,-2.16 0.14,-1.44 0.33,-1.38 -8.33,-2.75 -2.6,-0.42 -3.37,-0.82 -3.37,-1.75 0,-0.45 -0.73,-0.7 -3.27,-1.18 -1.8,-0.33 -4.45,-0.7 -5.9,-0.83 -3.08,-0.26 -3.89,-0.6 -3.89,-1.6 0,-0.86 -2.51,-3.34 -4.05,-4 -0.59,-0.26 -1.78,-0.58 -2.65,-0.72 a 6,6 0 0 1 -2.12,-0.7 c -0.29,-0.23 -1.8,-0.64 -3.35,-0.9 a 47,47 0 0 1 -4.23,-0.88 c -1.3,-0.38 -1.42,-0.52 -1.52,-1.8 -0.08,-1.09 0.13,-1.7 0.96,-2.86 0.6,-0.82 0.92,-1.56 0.73,-1.68 -0.19,-0.12 -0.35,-0.67 -0.35,-1.22 0,-1.03 1.68,-2.83 2.63,-2.83 0.25,0 0.65,-0.23 0.88,-0.5 0.54,-0.67 -0.5,-1.27 -2.18,-1.27 -0.65,0 -1.34,-0.13 -1.52,-0.3 -0.19,-0.16 -1.53,-0.49 -2.98,-0.72 l -4.77,-0.75 c -1.16,-0.19 -2.88,-0.43 -3.83,-0.55 -1.25,-0.15 -1.76,-0.38 -1.88,-0.85 -0.21,-0.8 -2.11,-1.16 -2.39,-0.43 -0.1,0.27 -0.39,0.42 -0.63,0.33 -0.24,-0.1 -0.66,0.06 -0.92,0.34 -0.4,0.43 -0.36,0.54 0.27,0.7 0.4,0.11 0.74,0.34 0.74,0.5 0,0.18 0.12,0.3 0.27,0.28 0.9,-0.15 1.14,0.15 1.14,1.44 0,1.57 -0.55,2.05 -2.52,2.21 -0.65,0.05 -1.26,0.2 -1.37,0.34 -0.1,0.13 -0.93,0.28 -1.85,0.33 -0.92,0.05 -1.67,0.2 -1.67,0.33 0,0.14 -0.4,0.35 -0.88,0.47 -0.48,0.13 -0.88,0.39 -0.88,0.6 0,0.21 -0.14,0.27 -0.31,0.17 -0.48,-0.3 -1.03,1.53 -1.09,3.66 -0.05,1.89 -0.5,3 -1.08,2.66 -0.15,-0.1 -0.33,-0.02 -0.4,0.18 -0.07,0.2 -0.8,0.4 -1.62,0.44 -0.82,0.05 -1.5,0.2 -1.5,0.35 0,0.15 -1.03,0.27 -2.29,0.27 h -2.3 V 51 c -0.01,0.63 -0.25,1.46 -0.53,1.83 -0.9,1.2 -0.64,3.17 0.71,5.3 a 12,12 0 0 1 1.24,2.25 c 0,0.18 0.28,0.43 0.62,0.54 0.34,0.11 1.31,0.62 2.17,1.1 0.86,0.48 1.9,0.89 2.3,0.89 0.42,0 0.92,0.15 1.1,0.33 0.18,0.18 1.1,0.37 2.03,0.42 0.93,0.05 1.78,0.22 1.87,0.37 0.1,0.16 0.57,0.29 1.05,0.29 0.48,0 1.27,0.26 1.75,0.57 0.48,0.31 0.87,0.45 0.87,0.3 0,-0.13 0.2,-0.08 0.47,0.14 0.25,0.21 0.8,0.44 1.2,0.5 0.4,0.06 0.98,0.32 1.3,0.58 0.3,0.26 0.55,0.35 0.55,0.2 0,-0.15 0.2,-0.1 0.45,0.1 0.24,0.2 1.07,0.41 1.85,0.47 0.77,0.05 1.83,0.38 2.35,0.74 0.51,0.35 1.15,0.63 1.4,0.63 0.27,0 1,0.32 1.64,0.71 0.64,0.4 1.44,0.77 1.77,0.83 0.78,0.16 1.85,0.55 2.62,0.96 0.34,0.18 0.79,0.33 1,0.33 0.21,0 1.07,0.47 1.92,1.05 a 8,8 0 0 0 1.87,1.06 c 0.18,0 1.07,0.41 1.96,0.91 0.9,0.5 1.64,0.8 1.64,0.65 0,-0.14 0.33,0.05 0.74,0.42 0.41,0.37 0.76,0.62 0.8,0.56 0.05,-0.13 1.14,0.2 2.16,0.67 0.39,0.17 1.06,0.37 1.5,0.43 1.33,0.18 4.99,4.58 6.8,8.18 1.27,2.5 2.29,4 3.27,4.77 0.52,0.41 0.95,0.63 0.95,0.5 0,-0.15 0.28,-0.02 0.62,0.27 0.76,0.67 2.84,1.64 3.8,1.78 0.38,0.06 0.9,0.24 1.16,0.4 0.25,0.15 0.65,0.11 0.9,-0.1 0.6,-0.49 9.63,-0.57 10.22,-0.09 0.24,0.2 1.12,0.41 1.95,0.46 1.06,0.06 1.62,0.29 1.87,0.75 0.2,0.37 0.44,0.58 0.55,0.48 0.27,-0.27 2.22,0.78 2.22,1.2 0,0.19 0.3,0.34 0.66,0.34 0.86,0 3.31,2.4 4.78,4.67 0.57,0.87 0.7,0.92 1.34,0.47 0.39,-0.28 0.91,-0.42 1.16,-0.33"
       id="MA" />
    <path
       d="m 221.07,107.5 c 0.25,-0.3 0.83,-0.7 1.28,-0.87 0.45,-0.17 0.92,-0.59 1.04,-0.93 0.12,-0.34 0.45,-0.9 0.74,-1.23 0.78,-0.9 2.2,-3.84 2.2,-4.55 0,-0.34 0.16,-0.72 0.35,-0.84 0.2,-0.12 0.35,-0.93 0.35,-1.8 0,-1.5 -0.35,-2.48 -1.36,-3.74 -2.05,-2.56 -2.78,-6.32 -1.46,-7.51 0.63,-0.58 0.7,-1.1 0.7,-4.99 0,-3.69 -0.1,-4.53 -0.7,-5.6 -0.39,-0.69 -0.7,-1.72 -0.7,-2.3 0,-0.56 0.31,-1.6 0.7,-2.28 0.39,-0.7 0.7,-1.5 0.7,-1.81 0,-1.14 3.12,-4.91 4.51,-5.45 0.44,-0.18 0.94,-0.68 1.12,-1.12 0.17,-0.44 1.36,-1.82 2.64,-3.08 1.27,-1.25 2.32,-2.46 2.32,-2.68 0,-0.22 0.3,-0.67 0.67,-1 0.52,-0.47 0.73,-1.33 0.92,-3.82 l 0.26,-3.2 -1.16,-1.01 a 6,6 0 0 0 -2.07,-1.24 3.4,3.4 0 0 1 -1.48,-0.87 c -0.32,-0.36 -0.75,-0.65 -0.96,-0.65 -0.22,0 -1.1,-0.34 -1.95,-0.76 -1.33,-0.65 -1.6,-0.95 -1.77,-2.06 -0.25,-1.54 -1.12,-2.63 -2.34,-2.93 a 2,2 0 0 1 -1.23,-1.03 c -0.2,-0.44 -0.71,-0.86 -1.15,-0.92 -0.44,-0.06 -0.8,-0.26 -0.8,-0.44 0,-0.18 -0.43,-0.33 -0.96,-0.34 -0.54,0 -1.2,-0.15 -1.49,-0.32 -0.35,-0.23 -0.64,-0.14 -0.96,0.31 -0.58,0.84 -2.13,1.12 -2.75,0.5 -0.27,-0.26 -0.66,-0.48 -0.88,-0.48 -0.22,0 -0.79,-0.4 -1.27,-0.88 a 4.5,4.5 0 0 0 -1.84,-1.08 l -1.84,-0.42 q -2.12,-0.53 -2.11,-0.04 c 0,0.17 -0.12,0.28 -0.27,0.26 -0.14,-0.02 -1.02,-0.02 -1.94,0 q -1.69,0.04 -1.67,0.52 c 0,0.3 -0.35,0.43 -0.97,0.37 -1.31,-0.13 -3.62,-0.95 -3.62,-1.29 0,-0.49 -1.08,-0.27 -1.28,0.27 -0.11,0.29 -0.35,0.43 -0.52,0.33 -0.18,-0.11 -0.32,-0.05 -0.32,0.12 0,0.18 -0.47,0.34 -1.06,0.35 -1.07,0.03 -2.11,0.76 -2.11,1.49 0,0.22 -0.15,0.3 -0.33,0.2 -0.18,-0.12 -0.56,0.11 -0.84,0.51 -0.35,0.5 -0.88,0.72 -1.7,0.71 -1.97,-0.03 -2.42,0.09 -2.42,0.6 0,0.27 -0.16,0.4 -0.36,0.27 -0.2,-0.12 -0.35,0.22 -0.35,0.82 v 1.03 l -3.09,0.1 c -4.38,0.12 -4.32,0.12 -4.32,0.42 0,0.15 -1.5,0.28 -3.35,0.28 -2.96,0 -3.4,-0.08 -3.79,-0.7 -0.24,-0.4 -0.8,-0.71 -1.26,-0.71 -1.06,0 -2.13,-0.58 -3.3,-1.79 -1.04,-1.07 -3.47,-1.57 -3.73,-0.77 -0.2,0.58 -8.85,0.61 -10.11,0.04 a 2.1,2.1 0 0 1 -1.1,-1.43 c -0.13,-0.56 -0.61,-1.4 -1.08,-1.87 a 3,3 0 0 1 -0.85,-1.7 c 0,-0.67 -0.23,-0.9 -1.06,-1.07 -0.62,-0.13 -1.06,-0.44 -1.06,-0.75 0,-0.3 -0.3,-0.54 -0.66,-0.54 -0.4,0 -0.84,-0.41 -1.1,-1.06 l -0.44,-1.06 h -3.29 c -1.81,0 -3.39,-0.15 -3.5,-0.35 -0.13,-0.2 -0.7,-0.35 -1.28,-0.35 -1.8,0 -2.55,-1.05 -2.47,-3.52 0.04,-1.26 -0.09,-2.13 -0.3,-2.13 -0.21,0 -0.37,-0.28 -0.37,-0.64 0,-0.47 -0.46,-0.75 -1.76,-1.09 l -1.76,-0.45 V 17.8 c 0,-1.46 -0.12,-1.73 -0.9,-2.09 -0.5,-0.22 -1.29,-0.4 -1.77,-0.4 -0.47,0 -0.86,-0.17 -0.86,-0.36 0,-0.2 -0.42,-0.35 -0.93,-0.35 -0.51,0 -1.22,-0.34 -1.59,-0.76 -0.36,-0.42 -0.66,-0.56 -0.66,-0.32 0,0.24 -0.23,0.36 -0.52,0.25 -0.33,-0.13 -0.82,0.19 -1.3,0.83 -0.41,0.56 -0.9,0.95 -1.05,0.85 -0.17,-0.1 -0.3,0 -0.3,0.23 0,0.25 -0.35,0.34 -0.9,0.24 -0.5,-0.1 -1.11,0.04 -1.37,0.3 -0.26,0.25 -0.57,0.36 -0.69,0.24 -0.12,-0.12 -0.22,0.06 -0.22,0.39 0,0.33 -0.2,0.58 -0.44,0.54 -1.64,-0.2 -2.22,0.1 -2.86,1.47 -0.58,1.26 -0.8,1.42 -1.76,1.37 -1.78,-0.1 -2,-0.02 -2,0.66 0,0.74 -1.16,1.95 -1.52,1.59 -0.13,-0.13 -0.24,0.04 -0.24,0.37 0,0.34 -0.15,0.51 -0.35,0.4 -0.56,-0.36 -0.4,0.74 0.18,1.23 0.29,0.24 0.53,0.71 0.53,1.05 0,0.34 0.23,0.82 0.52,1.06 0.29,0.23 0.93,1.32 1.43,2.42 0.5,1.1 1.22,2.63 1.6,3.4 q 1.23,2.56 0.15,4.64 a 5,5 0 0 0 -0.53,1.56 c 0,0.3 -0.23,0.86 -0.52,1.23 -0.8,1.06 -0.7,3.58 0.17,4.04 0.53,0.28 0.7,0.74 0.7,1.83 0,1.2 -0.26,1.76 -1.6,3.33 -0.9,1.04 -1.82,1.9 -2.06,1.9 -0.24,0 -0.88,0.46 -1.43,1.04 -0.55,0.57 -1.14,1 -1.3,0.97 -0.16,-0.03 -0.5,0.32 -0.76,0.8 -0.24,0.5 -0.8,1.05 -1.23,1.24 -0.43,0.19 -0.79,0.53 -0.79,0.75 0,0.22 -0.23,0.6 -0.52,0.83 -0.63,0.53 -1.6,2.4 -1.6,3.1 0,0.27 -0.32,0.97 -0.73,1.53 -1,1.4 -3.5,6.3 -3.5,6.86 0,0.24 -0.47,1.35 -1.06,2.45 a 11,11 0 0 0 -1.05,2.5 c 0,0.26 -0.32,1.05 -0.7,1.74 -0.4,0.69 -0.71,1.8 -0.71,2.46 0,0.66 -0.16,1.3 -0.36,1.42 -0.2,0.12 -0.35,0.6 -0.35,1.07 0,0.46 -0.32,1.41 -0.7,2.1 -0.94,1.66 -0.9,2.3 0.1,2.3 0.45,0 1.28,0.47 1.83,1.05 0.56,0.59 1.3,1.06 1.65,1.06 0.35,0 1.17,0.3 1.83,0.68 1.26,0.7 3.5,1 9.98,1.3 l 3.94,0.18 1.58,-1.17 c 0.88,-0.64 1.67,-1.45 1.78,-1.81 0.15,-0.53 0.5,-0.63 1.89,-0.55 0.93,0.05 2.01,0.25 2.4,0.43 l 1.32,0.64 c 1.07,0.53 1.81,0.32 3.62,-1.02 2.21,-1.64 7.48,-4.32 8.49,-4.32 1.18,0 2.9,-1 3.86,-2.27 0.9,-1.17 1.19,-3.15 0.53,-3.55 -0.2,-0.12 -0.36,-1.21 -0.36,-2.42 0,-1.67 0.23,-2.66 0.93,-4.06 l 0.92,-1.85 3.75,0.06 c 3.7,0.06 3.76,0.07 4.65,1.12 0.74,0.88 1.15,1.05 2.37,1.04 0.82,-0.01 1.57,0.13 1.69,0.3 0.1,0.19 0.74,0.34 1.4,0.34 0.66,0 1.28,0.16 1.4,0.35 0.14,0.21 2.63,0.35 6.3,0.35 4.26,0 6.21,0.13 6.51,0.43 0.54,0.54 0.54,2.54 0,4.05 -0.45,1.23 -0.18,1.85 0.86,2 0.29,0.04 0.8,0.35 1.13,0.68 0.53,0.53 1.25,0.76 2.03,0.66 0.13,-0.02 0.59,0.53 1.01,1.22 0.73,1.17 0.75,1.42 0.38,3.67 -0.22,1.33 -0.4,3.06 -0.4,3.84 0,1.18 -0.19,1.56 -1.1,2.23 a 9,9 0 0 0 -1.9,2.21 c -0.97,1.69 -1.46,3.7 -0.9,3.7 0.7,0 0.9,0.07 1.26,0.37 0.2,0.17 1.52,0.34 2.93,0.38 1.4,0.04 2.64,0.2 2.74,0.37 0.27,0.43 2.88,0.37 3.15,-0.07 0.27,-0.42 7.54,-0.42 8.1,0 0.71,0.53 3.72,1.18 7.6,1.66 0.86,0.1 1.73,0.33 1.91,0.5 0.19,0.18 0.9,0.33 1.6,0.33 1.78,0 3.16,1 4.73,3.4 1.17,1.79 2.86,3.38 3.83,3.6 0.15,0.03 0.83,0.38 1.51,0.76 0.69,0.39 1.62,0.7 2.06,0.7 0.45,0 0.93,0.12 1.07,0.26 1.13,1.13 7.18,1.58 8,0.59"
       id="CE" />
    <path
       d="m 382.97,114.95 c 0.38,-0.35 0.7,-0.92 0.7,-1.28 0,-0.35 0.31,-1.2 0.7,-1.9 0.39,-0.68 0.7,-1.55 0.7,-1.93 0,-0.38 0.33,-0.85 0.71,-1.06 0.4,-0.2 0.7,-0.67 0.7,-1.04 0,-0.36 0.3,-1.27 0.67,-2.01 2.85,-5.8 2.94,-6.09 3.45,-11 0.18,-1.74 0.1,-1.99 -0.85,-3 -1.4,-1.5 -3.26,-4.3 -3.26,-4.92 0,-0.27 -0.32,-0.79 -0.7,-1.14 -0.4,-0.35 -0.71,-0.82 -0.71,-1.06 0,-0.23 -0.32,-0.7 -0.7,-1.05 -0.4,-0.36 -0.71,-0.82 -0.71,-1.05 0,-1.17 -5.1,-4.77 -6.77,-4.77 -0.36,0 -0.93,-0.15 -1.26,-0.33 -0.34,-0.18 -1.19,-0.57 -1.9,-0.87 -0.7,-0.3 -1.47,-0.8 -1.71,-1.1 a 1.8,1.8 0 0 0 -1.2,-0.54 c -0.4,0 -1.3,-0.49 -1.97,-1.06 -0.67,-0.57 -1.5,-1.04 -1.83,-1.04 -0.33,0 -0.7,-0.16 -0.83,-0.36 -0.12,-0.19 -0.66,-0.35 -1.2,-0.35 -0.55,0 -2.23,-0.63 -3.73,-1.41 -1.51,-0.78 -3.03,-1.41 -3.38,-1.41 -0.35,0 -0.74,-0.16 -0.86,-0.35 -0.12,-0.2 -0.84,-0.36 -1.6,-0.36 a 6.4,6.4 0 0 1 -2.63,-0.7 c -0.7,-0.4 -1.55,-0.7 -1.9,-0.7 -0.35,0 -0.93,-0.33 -1.28,-0.71 -0.45,-0.5 -1.08,-0.7 -2.15,-0.7 -0.83,0 -1.6,-0.17 -1.73,-0.36 -0.12,-0.2 -0.75,-0.35 -1.4,-0.35 -0.66,0 -1.3,-0.16 -1.42,-0.36 -0.12,-0.2 -0.69,-0.35 -1.26,-0.35 -1.1,0 -2.13,-0.47 -3.38,-1.53 q -0.75,-0.63 -0.99,-0.26 c -0.13,0.2 -1.24,0.38 -2.48,0.38 -1.24,0 -2.35,0.16 -2.47,0.35 -0.12,0.2 -0.66,0.35 -1.2,0.35 -1.12,0 -1.95,0.85 -3.22,3.29 -1.06,2.06 -5.1,6.34 -6.12,6.5 -0.4,0.06 -0.9,0.27 -1.08,0.45 -0.45,0.46 -4.33,0.45 -4.61,0 -0.25,-0.4 -2.05,-0.49 -2.42,-0.11 -0.14,0.13 -0.5,0.28 -0.8,0.32 -2.05,0.3 -3.85,1.96 -5.32,4.9 -2.42,4.82 -3.06,6.05 -3.4,6.48 -0.2,0.26 -0.58,0.81 -0.82,1.23 -1.2,2.07 -1.3,2.35 -0.93,3.14 l 1.1,2.38 c 0.75,1.62 3.98,5.3 4.65,5.3 0.2,0 0.53,0.4 0.72,0.9 0.19,0.5 0.49,0.8 0.67,0.7 0.18,-0.12 0.6,0.26 0.94,0.83 0.34,0.57 0.87,1.1 1.17,1.19 1,0.26 2.15,2.97 2.15,5.03 0,1.03 0.16,1.98 0.35,2.1 0.2,0.12 0.35,0.62 0.35,1.11 0,0.55 0.42,1.3 1.06,1.89 a 5,5 0 0 1 1.06,1.21 c 0,0.12 0.51,0.73 1.15,1.34 0.64,0.61 1.4,1.7 1.72,2.4 a 5.6,5.6 0 0 0 1.85,2.08 c 0.7,0.43 1.28,0.93 1.28,1.11 0,0.18 0.31,0.64 0.7,1.02 0.38,0.39 0.87,1.42 1.1,2.3 l 0.4,1.6 h 3.26 c 2.57,0 3.37,-0.13 3.74,-0.57 0.26,-0.32 0.82,-0.7 1.24,-0.86 0.81,-0.31 1.9,-2.14 1.9,-3.19 0,-0.6 3.11,-2.44 4.13,-2.44 0.64,0 1.8,-0.68 3.33,-1.94 6.2,-5.12 6.87,-5.35 9.1,-3.1 1.81,1.83 2.5,2.16 4.6,2.26 1,0.04 1.9,0.21 1.99,0.37 0.09,0.16 0.62,0.29 1.16,0.29 0.97,0 1.24,0.21 3.77,2.91 a 5.5,5.5 0 0 0 1.84,1.43 c 0.33,0.06 1.15,0.36 1.83,0.68 0.68,0.32 2.03,0.66 3,0.77 4.4,0.47 5.34,0.67 6,1.28 0.4,0.36 1.32,0.7 2.06,0.75 1.07,0.07 1.45,0.3 1.86,1.07 0.28,0.54 0.74,0.99 1.01,0.99 0.28,0 0.72,0.35 0.97,0.8 0.38,0.67 0.46,-0.03 0.55,-4.72 0.08,-4.97 0.16,-5.58 0.79,-6.14"
       id="LA" />
    <path
       d="m 450.21,153.58 q 2.76,-1.41 5.15,-3.78 c 1.31,-1.3 2.39,-2.52 2.39,-2.7 0,-0.17 0.56,-1.09 1.23,-2.03 0.78,-1.08 1.24,-2.13 1.24,-2.81 0,-0.6 0.32,-1.5 0.7,-1.99 0.4,-0.49 0.71,-1.24 0.71,-1.67 0,-1.22 2.09,-2.66 3.85,-2.66 0.75,0 1.32,-0.33 2.03,-1.19 1.43,-1.7 2.43,-1.92 3.36,-0.75 1.13,1.45 1.88,1.56 4.48,0.65 1.28,-0.45 2.57,-0.82 2.86,-0.81 0.29,0.01 1.14,0.7 1.89,1.56 0.8,0.92 1.56,1.48 1.85,1.36 0.27,-0.1 0.5,0 0.5,0.22 0,0.22 0.2,0.38 0.44,0.35 0.24,-0.03 1.05,-0.04 1.8,-0.02 l 1.36,0.04 -0.14,2.3 c -0.08,1.26 -0.02,2.3 0.13,2.3 0.16,0 0.28,0.55 0.28,1.23 0,0.86 -0.15,1.23 -0.52,1.23 -0.3,0 -0.53,0.15 -0.53,0.33 0,0.18 -0.3,0.3 -0.68,0.28 -1.1,-0.08 -3.2,1.23 -3.2,2 0,0.38 -0.7,1.35 -1.55,2.17 -0.85,0.82 -1.28,1.41 -0.94,1.32 0.37,-0.1 1.07,0.3 1.76,1 0.98,0.97 1.25,1.08 1.82,0.72 0.96,-0.6 4.37,-0.53 4.89,0.1 0.33,0.4 0.57,0.43 1.08,0.1 0.36,-0.22 0.57,-0.53 0.48,-0.68 -0.1,-0.16 -0.01,-0.28 0.2,-0.28 0.2,0 1.04,-0.64 1.87,-1.42 0.82,-0.77 1.7,-1.4 1.94,-1.4 0.28,0 0.44,-0.53 0.44,-1.45 0,-1.22 0.24,-1.7 1.5,-3.02 1.72,-1.8 1.86,-2.37 0.62,-2.54 -2.19,-0.3 -2.39,-1.84 -0.37,-2.87 a 7,7 0 0 1 1.85,-0.72 c 0.25,0 0.85,-0.32 1.34,-0.7 0.48,-0.37 1.13,-0.69 1.44,-0.7 0.92,0 2.13,-1.61 2.33,-3.08 0.16,-1.2 0.06,-1.5 -0.73,-2.12 -0.51,-0.4 -0.92,-0.98 -0.92,-1.29 0,-0.31 -0.28,-0.57 -0.6,-0.57 -0.34,0 -0.94,-0.3 -1.33,-0.67 l -3.03,-2.81 a 17,17 0 0 1 -3.07,-3.65 c -0.74,-1.47 -1.99,-2.84 -2.3,-2.53 -0.09,0.09 -0.36,-0.09 -0.6,-0.38 -0.25,-0.3 -0.8,-0.54 -1.22,-0.54 -0.43,0 -1.11,-0.32 -1.53,-0.7 -0.42,-0.4 -0.92,-0.71 -1.11,-0.71 -0.76,0 -2.85,-1.21 -2.85,-1.65 0,-0.33 -0.5,-0.45 -1.73,-0.4 -2.08,0.1 -2.9,-0.45 -2.66,-1.77 0.13,-0.78 -0.05,-1.08 -1.1,-1.74 -0.7,-0.43 -1.71,-0.8 -2.26,-0.8 a 7,7 0 0 1 -2.3,-0.54 l -1.3,-0.54 0.11,-2.04 q 0.18,-3.2 -1.6,-3.22 c -0.6,0 -3.15,-1.41 -3.33,-1.84 -0.07,-0.15 -0.33,-0.28 -0.58,-0.28 -0.26,0 -0.56,-0.25 -0.68,-0.56 -0.17,-0.45 -0.5,-0.52 -1.54,-0.33 -0.72,0.14 -2.64,0.33 -4.26,0.42 -3.15,0.19 -4.58,-0.21 -5.86,-1.63 -1.33,-1.47 -2.55,-1.78 -7.02,-1.78 -3.7,0 -4.33,-0.08 -4.97,-0.68 -1.27,-1.19 -4.65,-2.8 -5.18,-2.46 -0.27,0.17 -0.81,0.31 -1.22,0.31 -0.41,0 -1.35,0.54 -2.11,1.2 -0.77,0.65 -1.95,1.48 -2.63,1.85 -0.68,0.37 -1.88,1.2 -2.67,1.86 a 6,6 0 0 1 -2.64,1.33 c -1.36,0.15 -2.5,1.3 -2.36,2.41 0.05,0.4 0.33,0.72 0.62,0.73 0.3,0.02 1.14,0.3 1.9,0.62 0.75,0.33 1.58,0.6 1.85,0.6 0.27,0 0.77,0.14 1.1,0.32 1.26,0.66 4.6,1.83 5.51,1.93 0.53,0.05 1.5,0.63 2.18,1.28 1.05,1.02 1.22,1.42 1.22,2.84 0,1.48 0.15,1.8 1.54,3.14 1.51,1.47 1.54,1.54 1.74,4.37 0.12,1.58 0.47,3.58 0.79,4.46 0.73,2 0.44,4.77 -0.62,5.9 -0.4,0.43 -0.87,0.7 -1.03,0.6 -0.17,-0.11 -0.3,-0.04 -0.3,0.15 0,0.18 -0.8,0.9 -1.77,1.6 -1.65,1.19 -1.76,1.37 -1.76,2.8 0,0.83 0.23,1.82 0.52,2.2 0.28,0.37 0.52,1.43 0.52,2.34 0.01,1.44 0.18,1.8 1.34,2.9 a 7,7 0 0 0 1.58,1.26 c 0.15,0 0.75,0.85 1.33,1.9 0.59,1.03 1.4,2.18 1.8,2.54 0.4,0.37 0.93,1.14 1.17,1.73 0.36,0.86 2.9,4.06 3.23,4.06 0.04,0 1.32,-0.63 2.84,-1.4"
       id="NQ" />
    <path
       d="m 233.54,156.04 c 0.6,0 1.47,-0.31 1.96,-0.7 0.49,-0.37 1.07,-0.69 1.3,-0.7 0.53,0 1.87,-1.7 1.87,-2.35 0,-0.7 1.46,-2.59 2,-2.59 0.84,0 2.37,-2.5 2.66,-4.35 0.6,-3.83 0.73,-6.48 0.33,-6.73 -0.22,-0.14 -0.4,-0.58 -0.4,-0.98 0,-0.8 -0.97,-2.56 -2.53,-4.57 q -1.76,-2.27 -0.47,-6.5 c 0.87,-2.89 0.68,-3.36 -2,-5.02 -1.46,-0.9 -3.36,-2.97 -5.5,-6 -1.44,-2.02 -3.6,-3.57 -5.04,-3.6 -0.28,-0.01 -0.82,-0.25 -1.2,-0.54 a 3,3 0 0 0 -1.6,-0.51 c -0.5,0 -1.07,-0.14 -1.26,-0.3 -0.61,-0.57 -3.61,-1.11 -6.04,-1.11 -2.53,0 -6.7,-0.82 -8.28,-1.64 a 4,4 0 0 0 -1.51,-0.48 c -0.72,0 -5.5,-4.73 -5.5,-5.43 0,-0.94 -1.73,-1.9 -4.14,-2.3 -2.22,-0.37 -3.66,-0.66 -9.08,-1.85 -1.31,-0.28 -4.67,-0.47 -8.82,-0.48 -6.86,-0.01 -12.09,-0.6 -12.4,-1.4 -0.08,-0.24 0.09,-1.13 0.38,-1.98 0.29,-0.85 0.55,-1.76 0.55,-2.02 0,-0.67 2.07,-3.65 3.05,-4.41 0.66,-0.52 0.84,-1 0.84,-2.3 0,-0.9 0.15,-2.26 0.33,-3.01 0.17,-0.75 0.23,-1.58 0.13,-1.84 -0.1,-0.26 -1.4,-1.07 -2.88,-1.8 l -2.7,-1.34 -0.1,-1.73 c -0.07,-0.95 0.05,-1.9 0.26,-2.1 0.2,-0.2 0.37,-0.66 0.37,-1 0,-0.59 -0.43,-0.64 -5.2,-0.65 -3.28,-0.01 -6.06,-0.21 -7.5,-0.54 -1.26,-0.28 -3.22,-0.7 -4.35,-0.91 a 6.5,6.5 0 0 1 -2.96,-1.23 c -0.76,-0.7 -1.28,-0.84 -3.14,-0.84 h -2.24 l -0.74,1.46 a 4.2,4.2 0 0 0 -0.52,2.91 c 0.55,3.63 0.6,4.9 0.18,5.88 -0.61,1.49 -2.55,3.06 -4.3,3.5 -2.06,0.51 -7.94,3.4 -9.44,4.64 -1.42,1.17 -3.52,1.34 -6.6,0.54 l -1.82,-0.47 -2,1.7 -2,1.71 h -4.65 c -2.7,0 -4.82,-0.15 -5.03,-0.36 -0.21,-0.21 -1.46,-0.45 -2.8,-0.56 -3,-0.24 -5.63,-1.07 -7.03,-2.2 l -1.06,-0.87 -0.18,2.44 c -0.15,2.1 -0.34,2.64 -1.35,3.9 -1.36,1.7 -1.38,2.8 -0.04,3.62 3.14,1.95 3.43,2.2 3.64,3.26 0.51,2.54 0.34,3.6 -1.32,8.23 -0.83,2.31 -1,2.53 -2.68,3.4 -0.98,0.52 -2.09,1.01 -2.46,1.11 -0.65,0.17 -1.67,2.08 -3,5.62 -0.5,1.3 -0.6,2.4 -0.49,4.94 0.13,2.85 0.27,3.46 1.1,4.68 0.53,0.78 0.96,1.7 0.96,2.07 0,0.56 0.19,0.63 1.14,0.47 3.28,-0.57 13.12,-1.38 13.21,-1.09 0.06,0.18 0.9,0.27 1.87,0.2 0.97,-0.07 1.77,0.03 1.77,0.22 0,0.18 0.4,0.26 0.88,0.17 0.49,-0.1 0.88,-0.02 0.88,0.16 0,0.59 2.13,0.05 2.49,-0.63 0.44,-0.82 3.28,-2.8 4.01,-2.8 0.63,0 1.5,-0.79 2.39,-2.16 0.85,-1.3 3.48,-2.07 7.14,-2.07 1.66,0 3.02,0.14 3.02,0.3 0,0.17 0.4,0.23 0.88,0.14 0.49,-0.1 0.89,-0.03 0.89,0.14 0,0.17 2.62,0.26 5.82,0.2 3.77,-0.07 5.82,0.02 5.82,0.25 0,0.2 0.24,0.27 0.53,0.16 0.29,-0.11 0.53,-0.06 0.53,0.12 0,0.18 0.55,0.25 1.23,0.17 0.68,-0.08 1.24,0.01 1.24,0.2 0,0.34 1.1,0.18 4.05,-0.59 0.78,-0.2 2.55,-0.37 3.93,-0.37 2.25,-0.01 2.54,0.06 2.7,0.72 0.17,0.61 0.32,0.67 0.9,0.35 1.18,-0.63 3.01,-0.46 3.5,0.31 0.4,0.65 0.51,0.66 1.66,0.18 1.58,-0.66 2.3,-0.65 2.3,0.04 0,0.3 0.16,0.45 0.36,0.33 0.2,-0.12 0.35,-0.08 0.35,0.1 0,0.16 0.44,0.24 0.97,0.17 0.75,-0.11 1.05,0.04 1.32,0.66 0.32,0.72 0.56,0.79 2.56,0.7 1.84,-0.08 2.2,0 2.2,0.48 0,0.32 0.17,0.48 0.36,0.36 0.2,-0.12 0.35,-0.04 0.35,0.17 0,0.21 0.16,0.3 0.36,0.18 0.2,-0.12 0.35,-0.05 0.35,0.15 0,0.2 0.24,0.27 0.53,0.15 0.29,-0.1 0.53,-0.05 0.53,0.12 0,0.92 7.8,-0.96 9.2,-2.21 0.86,-0.78 2.09,-0.64 2.09,0.22 0,0.4 0.15,0.63 0.35,0.51 0.2,-0.12 0.35,-0.06 0.35,0.12 0,0.2 0.32,0.26 0.7,0.16 0.42,-0.1 0.71,-0.01 0.71,0.23 0,0.23 0.16,0.32 0.35,0.2 0.2,-0.12 0.36,-0.04 0.36,0.17 0,0.21 0.14,0.3 0.32,0.2 0.18,-0.11 0.38,-0.02 0.45,0.2 0.08,0.23 0.56,0.04 1.18,-0.49 a 6,6 0 0 1 2.19,-1.12 c 0.63,-0.14 1.23,-0.4 1.34,-0.58 0.36,-0.57 1.04,-0.34 1.4,0.47 0.2,0.45 0.61,0.75 0.95,0.7 0.47,-0.08 0.62,0.22 0.7,1.4 0.09,1.22 0.23,1.5 0.73,1.41 0.34,-0.05 0.62,0.03 0.62,0.2 0,0.16 0.55,0.23 1.23,0.15 0.79,-0.1 1.23,0 1.23,0.27 0,0.23 0.16,0.31 0.36,0.2 0.2,-0.13 0.35,0.22 0.35,0.83 0,0.59 -0.16,1.16 -0.35,1.28 -0.67,0.41 -0.35,0.78 0.53,0.61 0.48,-0.09 0.88,0 0.88,0.18 0,0.2 0.4,0.27 0.88,0.18 0.49,-0.1 0.88,0 0.88,0.19 0,0.2 0.3,0.28 0.66,0.19 0.8,-0.2 1.16,1.07 0.68,2.36 -0.35,0.96 -0.1,1.9 0.42,1.58 0.2,-0.12 0.36,-0.05 0.36,0.15 0,0.2 0.24,0.27 0.53,0.16 0.29,-0.11 0.53,-0.02 0.53,0.2 0,0.23 0.15,0.32 0.34,0.2 0.46,-0.28 0.79,1.15 0.65,2.85 -0.1,1.15 0,1.36 0.5,1.28 0.35,-0.06 0.62,0.04 0.62,0.23 0,0.18 0.28,0.26 0.62,0.17 0.44,-0.11 0.76,0.18 1.1,1 0.27,0.65 0.73,1.36 1.03,1.6 0.4,0.31 0.52,1.04 0.47,2.76 q -0.06,2.32 0.3,2.1 c 0.2,-0.12 0.36,-0.04 0.36,0.18 0,0.21 0.15,0.3 0.33,0.19 0.41,-0.25 2.05,1.33 1.89,1.82 -0.07,0.2 0.19,0.73 0.56,1.2 l 0.68,0.84 1.47,-0.83 c 0.86,-0.48 2.33,-0.9 3.51,-1 l 2.04,-0.2 1.02,1.73 1.03,1.72 2.8,0.02 c 1.94,0.01 2.84,0.15 2.95,0.47 q 0.14,0.48 0.53,0.07 c 0.21,-0.22 0.87,-0.4 1.46,-0.4"
       id="AR" />
    <path
       d="m 314.3,157.44 c 0.83,-0.66 0.93,-0.97 0.93,-2.98 0,-1.24 0.16,-2.35 0.35,-2.46 0.2,-0.12 0.35,-0.6 0.35,-1.06 0,-0.46 0.16,-0.94 0.36,-1.06 0.2,-0.12 0.35,-0.6 0.35,-1.06 0,-0.46 0.16,-0.94 0.35,-1.06 0.2,-0.12 0.35,-0.6 0.35,-1.06 0,-0.46 0.16,-0.94 0.36,-1.05 0.2,-0.11 0.35,-0.76 0.35,-1.42 0,-0.66 0.16,-1.29 0.35,-1.4 0.2,-0.13 0.37,-0.73 0.39,-1.35 0.04,-1.42 1.7,-4.53 2.68,-5.02 2.21,-1.1 2.93,-2.62 2.93,-6.2 0,-2.1 -0.17,-3.06 -0.7,-4.02 a 6,6 0 0 1 -0.71,-1.76 c 0,-0.28 -0.3,-1.05 -0.68,-1.72 -0.38,-0.67 -0.57,-1.33 -0.44,-1.48 q 0.18,-0.22 -0.2,-0.01 -0.45,0.22 -0.78,-0.62 a 3,3 0 0 0 -1.32,-1.35 4.4,4.4 0 0 1 -1.7,-1.96 c -0.38,-0.82 -0.9,-1.5 -1.15,-1.5 -0.25,0 -0.55,-0.28 -0.67,-0.62 a 10,10 0 0 0 -1.5,-2.03 c -1.52,-1.65 -2.12,-3.22 -2.17,-5.65 -0.06,-2.38 -0.64,-3.53 -2.95,-5.8 -1.08,-1.06 -1.96,-2.14 -1.96,-2.39 0,-0.24 -0.21,-0.45 -0.47,-0.45 -0.52,0 -2.36,-1.8 -2.36,-2.31 0,-0.2 -0.35,-0.5 -0.78,-0.7 -0.46,-0.2 -1.34,-1.43 -2.12,-2.95 -1.55,-3.05 -1.77,-5.17 -0.62,-6.2 0.38,-0.36 0.7,-0.81 0.7,-1.01 0,-0.2 0.32,-0.7 0.7,-1.1 0.38,-0.4 0.75,-1.1 0.81,-1.51 0.07,-0.42 0.35,-1.05 0.63,-1.4 0.8,-1 1.39,-2.16 1.39,-2.75 0,-0.7 0.64,-1.83 1.85,-3.28 0.54,-0.63 0.97,-1.3 0.97,-1.47 0,-0.4 2.04,-1.42 2.86,-1.42 0.34,0 0.74,-0.18 0.87,-0.39 0.15,-0.25 1.4,-0.33 3.63,-0.23 2.74,0.13 3.68,0.04 4.81,-0.47 1.58,-0.7 5.06,-4.16 5.84,-5.8 1.02,-2.14 2.52,-3.7 3.55,-3.7 0.54,0 1.08,-0.16 1.2,-0.35 0.12,-0.2 1.4,-0.35 2.84,-0.35 1.44,0 2.62,-0.08 2.62,-0.17 0,-0.25 -1.43,-2.79 -1.8,-3.17 -0.17,-0.18 -0.31,-0.92 -0.31,-1.63 0,-0.93 -0.25,-1.55 -0.88,-2.14 -0.48,-0.46 -0.88,-0.96 -0.88,-1.1 0,-0.16 -0.32,-0.63 -0.71,-1.05 -0.39,-0.41 -0.7,-0.96 -0.7,-1.22 0,-0.25 -0.17,-0.46 -0.36,-0.46 -0.2,0 -0.35,-0.32 -0.35,-0.7 q -0.01,-0.7 -0.67,-0.71 c -0.4,0 -0.83,-0.4 -1.09,-1.03 -0.23,-0.57 -0.69,-1.16 -1,-1.3 -0.62,-0.28 -4.04,-0.65 -10.17,-1.1 -2.77,-0.21 -3.75,-0.43 -4.33,-0.95 -0.4,-0.37 -0.67,-0.74 -0.58,-0.83 0.21,-0.22 -0.38,-0.76 -2,-1.85 -0.73,-0.48 -1.33,-1 -1.33,-1.14 0,-0.15 -0.32,-0.27 -0.7,-0.27 -0.4,0 -0.71,-0.16 -0.71,-0.35 0,-0.2 -0.2,-0.35 -0.46,-0.35 -0.26,0 -0.8,-0.32 -1.22,-0.7 -0.84,-0.78 -1.5,-0.93 -1.5,-0.33 0,0.38 -0.57,0.35 -5.02,-0.23 -0.92,-0.12 -1.68,-0.38 -1.68,-0.57 0,-0.2 -1.47,-0.3 -3.76,-0.23 l -3.76,0.1 -1.26,1.29 c -1.18,1.18 -1.44,1.28 -3.55,1.34 a 10,10 0 0 0 -2.45,0.23 c -0.1,0.1 -0.13,0.89 -0.08,1.76 l 0.1,1.57 -5.4,0.06 c -2.98,0.03 -5.61,0.05 -5.86,0.04 -0.24,-0.01 -0.44,0.12 -0.44,0.3 0,0.18 -0.23,0.3 -0.53,0.3 -0.29,0 -0.53,0.14 -0.53,0.3 0,0.16 -0.23,0.32 -0.52,0.35 l -0.97,0.12 c -0.25,0.04 -0.84,0.45 -1.33,0.93 -0.48,0.48 -0.68,0.76 -0.44,0.63 0.24,-0.14 0.44,-0.2 0.44,-0.14 0,0.06 0.15,0.62 0.32,1.23 0.26,0.9 0.2,1.25 -0.35,1.83 -0.66,0.71 -0.97,2.74 -0.36,2.36 0.18,-0.1 0.41,0.05 0.52,0.34 0.11,0.29 0.6,0.52 1.1,0.52 0.8,0 0.89,0.14 0.88,1.33 -0.01,1.32 -0.74,2.75 -1.17,2.31 q -0.21,-0.16 -0.23,0.2 c 0,0.24 -0.16,0.34 -0.36,0.22 -0.2,-0.12 -0.45,0.03 -0.56,0.33 -0.11,0.3 -0.52,0.55 -0.88,0.55 -0.37,0 -0.67,0.16 -0.67,0.36 0,0.2 -0.32,0.35 -0.7,0.35 -0.4,0 -0.71,0.16 -0.71,0.35 0,0.2 -0.2,0.31 -0.42,0.27 -0.56,-0.12 -0.92,1.65 -0.73,3.61 0.18,1.83 -0.45,3.3 -1.5,3.48 -0.39,0.06 -0.79,0.25 -0.89,0.42 -0.1,0.17 -0.87,0.28 -1.71,0.27 -0.94,-0.01 -1.66,0.17 -1.84,0.46 -0.17,0.27 -0.31,0.35 -0.32,0.18 0,-0.17 -0.21,-0.13 -0.47,0.08 -0.26,0.21 -0.58,0.3 -0.71,0.16 -0.13,-0.12 -0.23,0.05 -0.23,0.38 0,0.34 -0.16,0.51 -0.35,0.4 -0.32,-0.2 -0.51,0.26 -0.4,0.96 0.02,0.15 -0.4,0.27 -0.95,0.27 -0.9,0 -1.04,-0.18 -1.48,-1.77 -0.26,-0.97 -0.6,-1.76 -0.77,-1.76 -0.15,0 -0.29,-0.32 -0.29,-0.7 0,-0.4 -0.14,-0.71 -0.32,-0.71 -0.19,0 -0.43,-0.3 -0.54,-0.65 -0.12,-0.37 -0.85,-0.86 -1.7,-1.13 a 12,12 0 0 1 -4.47,-2.72 c -0.5,-0.44 -1.01,-0.8 -1.15,-0.8 -0.14,0 -0.58,-0.34 -0.97,-0.77 a 3,3 0 0 1 -0.3,-3.43 c 0.32,-0.53 0.3,-0.77 -0.16,-1.22 a 2,2 0 0 0 -1.28,-0.57 c -0.39,0 -0.8,-0.16 -0.92,-0.35 -0.12,-0.2 -0.45,-0.36 -0.73,-0.36 -0.36,0 -0.5,0.42 -0.5,1.44 0,1.16 -0.3,1.83 -1.56,3.44 a 82,82 0 0 1 -7.74,8.12 10,10 0 0 0 -2.03,2.83 c -0.4,0.9 -0.98,2.15 -1.3,2.77 -0.55,1.09 -0.54,1.21 0.2,2.75 0.7,1.43 0.78,2.16 0.78,6.65 0,4.6 -0.06,5.11 -0.7,5.7 -1.13,1.01 -0.95,1.75 1.32,5.3 1.03,1.62 1.2,2.56 1.06,5.63 -0.13,2.49 -0.37,3.6 -1.1,5.17 -0.52,1.1 -1.2,2.19 -1.49,2.44 -0.3,0.24 -0.85,0.88 -1.23,1.42 l -0.7,0.98 0.78,0.73 a 3,3 0 0 0 1.75,0.73 c 0.54,0 1.07,0.15 1.2,0.35 0.11,0.2 0.56,0.35 0.98,0.36 0.43,0 1.17,0.32 1.66,0.7 0.48,0.38 1.16,0.69 1.5,0.7 0.36,0 1.63,1.36 3.1,3.34 1.36,1.84 3.06,3.77 3.79,4.3 0.72,0.52 1.89,1.4 2.6,1.93 1.23,0.95 1.44,0.98 5.73,1.04 2.45,0.03 4.54,0.2 4.64,0.37 0.11,0.17 0.66,0.31 1.22,0.31 0.56,0 1.11,0.16 1.23,0.35 0.12,0.2 0.65,0.36 1.19,0.36 q 1.82,-0.01 1.8,1.78 c 0,0.67 0.66,1.64 2.3,3.37 1.38,1.48 2.28,2.74 2.29,3.22 0,0.83 2.27,3.62 2.93,3.62 0.21,0 0.72,0.32 1.13,0.7 0.41,0.4 1.16,0.74 1.67,0.78 0.9,0.08 1.96,1 5.18,4.46 0.78,0.84 1.57,1.43 1.76,1.32 a 0.4,0.4 0 0 1 0.56,0.14 c 0.14,0.23 3.14,0.36 8.08,0.36 9.04,0 8.64,-0.14 9.55,3.34 q 0.77,2.97 1.65,2.45 c 0.14,-0.08 0.35,0 0.48,0.2 0.12,0.2 0.81,0.36 1.54,0.36 0.72,0 1.47,0.15 1.65,0.34 0.19,0.18 1.29,0.38 2.44,0.44 2.08,0.1 2.12,0.12 2.47,1.34 0.53,1.8 0.82,2.12 1.96,2.12 q 1.75,0 1.76,2.37 c 0,1.6 0.55,1.86 3.9,1.86 2.56,0 3.21,-0.12 3.99,-0.73"
       id="ST" />
    <path
       d="m 81.36,165.56 c 0.37,-0.2 0.68,-0.66 0.68,-1.03 0,-0.37 0.17,-0.78 0.38,-0.9 0.2,-0.13 0.5,-0.59 0.67,-1.01 0.23,-0.61 0.85,-0.9 2.88,-1.38 1.43,-0.34 3.23,-0.6 4,-0.6 h 1.4 l -1.16,-1.06 a 8,8 0 0 0 -1.32,-1.06 c -0.09,0 -0.8,-0.42 -1.56,-0.93 -1.08,-0.7 -1.4,-1.15 -1.4,-1.9 0,-1.4 1.65,-2.67 4.13,-3.18 3.27,-0.67 4.68,-1.68 4.68,-3.33 0,-1.14 -1.7,-3.07 -3.4,-3.87 a 15,15 0 0 1 -3.04,-1.97 c -1.13,-1 -1.32,-1.39 -1.32,-2.66 0,-0.88 0.21,-1.65 0.53,-1.91 0.45,-0.38 0.41,-0.52 -0.32,-1.1 A 3,3 0 0 0 85.92,137 c -0.23,0 -0.84,-0.29 -1.35,-0.65 a 9,9 0 0 0 -1.56,-0.87 c -0.4,-0.14 -0.62,-0.59 -0.62,-1.27 0,-0.91 0.31,-1.23 2.47,-2.57 2.54,-1.56 2.85,-2 1.95,-2.75 -1.25,-1.04 -1.6,-2.5 -1.6,-6.91 0,-2.51 0.16,-4.43 0.36,-4.56 0.2,-0.13 0.35,-0.5 0.35,-0.83 0,-0.66 2.07,-4.96 2.82,-5.86 0.24,-0.3 0.74,-0.54 1.11,-0.54 1.35,0 3.83,-1.86 3.83,-2.87 0,-0.35 0.32,-1.2 0.7,-1.9 0.4,-0.68 0.71,-1.48 0.71,-1.77 0,-0.29 0.19,-0.82 0.42,-1.18 0.32,-0.53 0.28,-0.93 -0.2,-1.96 -0.34,-0.71 -0.89,-1.39 -1.21,-1.5 a 9,9 0 0 1 -1.92,-1.46 c -1.22,-1.16 -1.32,-1.41 -1.32,-3.24 0,-1.74 0.13,-2.1 1.06,-3 0.97,-0.92 1.06,-1.2 1.06,-3.41 v -2.4 h -1.04 c -0.57,0 -1.12,0.14 -1.23,0.31 -0.23,0.37 -2.04,0.73 -4.98,0.97 L 83.6,86.96 80.96,84.2 a 24,24 0 0 1 -3.61,-4.77 c -0.82,-1.66 -1.27,-2.15 -2.65,-2.82 -0.9,-0.45 -1.81,-1.17 -2,-1.6 -0.34,-0.77 -0.52,-0.8 -4.83,-0.8 -4.86,0 -5.68,0.3 -4.05,1.5 0.72,0.52 0.94,0.97 0.94,1.97 0,1.08 0.16,1.37 0.99,1.73 0.56,0.25 1.59,1.38 2.38,2.6 0.76,1.18 1.75,2.3 2.18,2.46 q 1.65,0.64 -0.3,2.65 l -1.1,1.13 1.01,0.63 c 1.82,1.13 3.65,3.08 3.65,3.9 0,0.46 -0.71,1.52 -1.76,2.6 -1.83,1.88 -2.13,2.6 -1.23,2.94 0.65,0.26 0.73,3.77 0.11,4.93 -0.23,0.42 -0.46,1.6 -0.51,2.62 -0.11,2.16 -0.3,2.56 -1.17,2.56 -0.35,0 -0.87,0.34 -1.15,0.77 -0.48,0.71 -0.9,0.78 -5.55,0.99 -4.2,0.19 -5.1,0.32 -5.37,0.82 -0.18,0.32 -0.63,0.6 -1,0.6 -0.99,0 -1.24,0.63 -1.24,3.14 v 2.27 l -1.94,0.5 c -1.07,0.26 -2.18,0.7 -2.47,0.94 -0.29,0.26 -1.16,0.66 -1.94,0.9 -0.77,0.24 -2,0.77 -2.73,1.17 -1.25,0.69 -1.33,0.83 -1.33,2.43 0,1.49 -0.11,1.76 -0.89,2.12 a 5,5 0 0 0 -1.61,1.58 c -0.55,0.88 -0.97,1.17 -1.74,1.17 -0.55,0 -1.1,0.16 -1.22,0.35 -0.12,0.2 -1.14,0.36 -2.26,0.36 -1.9,0 -2.13,0.09 -3.3,1.32 -2.29,2.38 -3.27,3.26 -3.63,3.26 -0.48,0 -2.28,2.08 -2.28,2.62 0,0.5 -2.58,2.67 -3.15,2.67 -0.2,0 -0.38,0.16 -0.38,0.36 0,0.2 0.25,0.35 0.54,0.35 0.29,0 0.63,0.23 0.74,0.5 0.1,0.29 0.65,0.62 1.22,0.74 1.25,0.28 3.15,1.88 3.15,2.68 0,0.32 -0.84,1.09 -1.92,1.74 -1.05,0.64 -2,1.49 -2.1,1.9 a 9,9 0 0 0 0.1,4.15 c 0.36,0.96 3.94,4.87 4.45,4.87 0.4,0 2.05,2 2.4,2.92 0.12,0.34 0.5,0.71 0.85,0.82 0.35,0.11 0.86,0.31 1.15,0.47 0.32,0.16 1.08,-0.04 1.95,-0.53 2.01,-1.12 4.49,-1.44 5.52,-0.72 0.62,0.44 1.71,0.57 4.7,0.58 3.87,0 3.9,0.01 4.95,1.09 2,2.06 6.7,3.82 10.16,3.83 1.27,0 2.47,0.24 3.17,0.62 0.92,0.5 2.4,0.65 7.83,0.82 3.69,0.1 7,0.23 7.35,0.26 0.35,0.04 0.94,-0.1 1.32,-0.3"
       id="CA" />
    <path
       d="m 347.86,207.2 c 0.13,-0.2 2.52,-0.35 6,-0.35 3.48,0 5.86,-0.14 6,-0.35 0.11,-0.2 0.73,-0.35 1.37,-0.35 0.71,0 1.4,-0.28 1.8,-0.7 0.35,-0.4 0.98,-0.71 1.4,-0.71 0.43,0 0.9,-0.12 1.04,-0.27 0.26,-0.26 0.44,-0.31 1.44,-0.4 0.3,-0.02 0.53,-0.27 0.53,-0.55 0,-0.28 0.6,-0.79 1.32,-1.12 a 10,10 0 0 0 2.12,-1.31 c 0.44,-0.4 0.8,-0.58 0.8,-0.42 0,0.16 0.31,0 0.7,-0.34 0.39,-0.36 0.7,-0.86 0.7,-1.13 0,-0.27 0.28,-0.58 0.62,-0.7 0.82,-0.29 3.62,-2.98 3.62,-3.48 0,-0.23 0.31,-0.7 0.7,-1.04 0.39,-0.36 0.7,-0.5 0.7,-0.35 0,0.17 0.44,-0.09 0.98,-0.56 1.4,-1.25 2.41,-1.74 3.55,-1.74 0.56,0 1.3,-0.31 1.65,-0.7 0.35,-0.4 0.8,-0.71 1,-0.71 0.7,0 2.7,-2.25 2.7,-3.01 0,-0.42 0.32,-1.05 0.71,-1.4 0.39,-0.35 0.7,-1 0.7,-1.45 0,-0.45 0.17,-0.9 0.36,-1.02 0.21,-0.13 0.35,-2.51 0.35,-5.95 v -5.74 l 1,-0.94 c 0.54,-0.53 1.14,-0.95 1.33,-0.95 0.19,0 0.97,-0.64 1.73,-1.41 0.76,-0.78 1.55,-1.41 1.77,-1.41 0.22,0 0.61,-0.56 0.88,-1.25 a 6,6 0 0 1 1.12,-1.82 c 0.53,-0.48 0.64,-1.14 0.64,-4.02 0,-1.93 -0.16,-3.55 -0.35,-3.67 -0.2,-0.12 -0.36,-0.6 -0.36,-1.06 0,-0.46 -0.16,-0.94 -0.35,-1.06 -0.2,-0.12 -0.35,-0.91 -0.35,-1.76 0,-0.86 -0.16,-1.65 -0.36,-1.77 -0.2,-0.12 -0.35,-0.75 -0.35,-1.41 0,-0.66 -0.16,-1.3 -0.35,-1.41 -0.2,-0.12 -0.35,-0.57 -0.35,-1 0,-0.46 -0.6,-1.38 -1.41,-2.18 -0.78,-0.75 -1.42,-1.54 -1.42,-1.75 0,-0.21 -0.51,-0.59 -1.14,-0.86 a 8,8 0 0 1 -1.8,-1.05 c -0.36,-0.31 -0.76,-0.55 -0.88,-0.52 -0.64,0.13 -1.82,-0.7 -3.4,-2.4 -2.15,-2.28 -2.65,-3.14 -2.65,-4.5 0,-0.58 -0.16,-1.14 -0.36,-1.26 -0.2,-0.12 -0.35,-0.9 -0.35,-1.72 0,-1.66 -0.47,-2.34 -1.61,-2.34 -0.43,0 -0.98,-0.25 -1.24,-0.57 -0.26,-0.3 -0.83,-0.7 -1.28,-0.87 -0.44,-0.17 -0.8,-0.5 -0.81,-0.76 0,-0.5 -1.56,-1.33 -2.48,-1.33 -0.32,0 -0.87,-0.32 -1.22,-0.7 -0.45,-0.5 -1.09,-0.7 -2.15,-0.7 -0.83,0 -1.61,-0.17 -1.73,-0.36 -0.12,-0.2 -0.92,-0.35 -1.77,-0.35 -0.85,0 -1.64,-0.16 -1.76,-0.36 -0.12,-0.2 -0.66,-0.35 -1.2,-0.35 -1.5,0 -2.85,-0.83 -4.9,-2.98 -1.42,-1.5 -2.09,-1.96 -2.88,-1.96 -0.57,0 -1.13,-0.16 -1.25,-0.35 -0.12,-0.2 -0.9,-0.35 -1.73,-0.35 -1.57,0 -3.35,-0.7 -4.1,-1.6 -0.24,-0.29 -0.64,-0.52 -0.9,-0.52 -0.26,0 -0.6,-0.25 -0.77,-0.55 -0.26,-0.45 -0.67,-0.26 -2.42,1.15 a 45,45 0 0 0 -3.3,2.92 4.3,4.3 0 0 1 -2.28,1.35 3,3 0 0 0 -1.42,0.45 c -0.18,0.18 -0.82,0.32 -1.43,0.32 -0.99,0 -1.15,0.17 -1.73,1.77 a 7.6,7.6 0 0 1 -2.25,3.2 l -1.63,1.42 -3.52,-0.06 c -3.29,-0.07 -4.46,0.24 -3.4,0.9 0.53,0.33 0.47,7.3 -0.08,8.34 -0.66,1.26 -2.1,2.78 -2.6,2.78 -0.26,0 -0.71,0.47 -1.01,1.06 -0.3,0.58 -0.7,1.05 -0.87,1.05 -0.3,0 -1.11,2.9 -1.82,6.53 -0.2,0.97 -0.56,2.24 -0.83,2.82 a 18.6,18.6 0 0 0 -1.26,12.17 c 0.5,2.15 0.3,8.66 -0.3,9.76 -0.18,0.36 -0.43,0.94 -0.54,1.29 -0.1,0.35 -0.36,0.54 -0.55,0.42 -0.19,-0.12 -0.5,0.17 -0.7,0.65 a 3.4,3.4 0 0 1 -1,1.34 c -0.78,0.55 -2.19,3.16 -2.19,4.05 0,0.33 -0.21,0.86 -0.47,1.16 -0.26,0.3 -0.68,1.31 -0.93,2.23 -0.47,1.74 -0.16,2.74 0.86,2.74 0.24,0 0.72,0.32 1.07,0.7 0.35,0.4 0.86,0.71 1.13,0.71 0.27,0 0.88,0.26 1.35,0.57 0.47,0.31 0.87,0.46 0.87,0.33 0,-0.13 0.46,0.09 1.03,0.49 0.56,0.4 1.17,0.73 1.35,0.73 0.9,0 1.8,1.7 2.04,3.86 0.14,1.26 0.37,2.53 0.51,2.83 l 0.9,1.85 c 0.66,1.39 4.35,5.4 4.67,5.07 0.1,-0.1 0.64,0.14 1.2,0.54 0.57,0.4 1.26,0.76 1.53,0.8 0.28,0.05 0.62,0.19 0.76,0.32 0.13,0.14 1,0.25 1.93,0.25 0.93,0 1.78,0.16 1.9,0.35 0.12,0.2 0.6,0.36 1.08,0.36 0.48,0 1.22,0.18 1.66,0.4 0.44,0.22 1.06,0.54 1.4,0.7 0.34,0.17 1.53,0.32 2.64,0.33 1.33,0.02 2.4,0.26 3.1,0.68 1.13,0.7 3.87,0.93 4.23,0.35"
       id="ES" />
    <path
       d="m 468.51,207.91 c 0.12,-0.2 0.53,-0.35 0.9,-0.35 0.38,0 0.69,-0.24 0.69,-0.53 0,-0.29 -0.24,-0.53 -0.53,-0.53 q -0.54,0.01 -0.53,-1.17 c 0,-0.93 0.27,-1.39 1.3,-2.2 0.7,-0.58 1.38,-1.01 1.5,-0.98 0.1,0.03 0.36,-0.07 0.55,-0.23 0.19,-0.16 0.99,-0.34 1.76,-0.4 1.62,-0.1 2.3,-0.5 2.3,-1.33 0,-0.31 0.48,-0.95 1.06,-1.4 0.81,-0.65 1.05,-1.12 1.05,-2.08 0,-0.73 0.26,-1.47 0.62,-1.81 0.34,-0.31 0.84,-1 1.1,-1.51 0.41,-0.8 0.41,-1.1 0,-2.03 -0.26,-0.6 -0.68,-1.09 -0.93,-1.09 -0.55,0 -1.14,-1.45 -1.14,-2.82 0,-0.87 -0.26,-1.14 -1.94,-1.96 -1.18,-0.57 -1.94,-1.17 -1.94,-1.53 0,-0.32 -0.34,-0.73 -0.76,-0.93 -0.64,-0.29 -0.8,-0.7 -0.91,-2.52 -0.13,-2 -0.07,-2.22 0.68,-2.62 a 6,6 0 0 0 1.44,-1.14 c 0.59,-0.68 0.59,-0.73 -0.1,-1.37 -0.87,-0.81 -0.91,-2.45 -0.08,-3.18 0.33,-0.3 1.29,-0.88 2.11,-1.3 1.46,-0.73 1.5,-0.8 1.5,-2.48 0,-2.02 -0.25,-2.84 -0.88,-2.84 -0.25,0 -0.56,-0.6 -0.7,-1.33 -0.3,-1.59 -0.75,-2.2 -1.64,-2.2 -0.36,0 -0.66,-0.16 -0.66,-0.35 0,-0.2 -0.2,-0.36 -0.46,-0.36 -0.26,0 -0.8,-0.31 -1.22,-0.7 -0.42,-0.39 -0.89,-0.7 -1.04,-0.7 a 4,4 0 0 1 -1.25,-0.84 2.4,2.4 0 0 1 -0.97,-2.09 c 0,-0.69 0.15,-1.3 0.34,-1.37 0.22,-0.07 0.22,-0.94 0.02,-2.37 -0.26,-1.8 -0.53,-2.45 -1.4,-3.3 -0.59,-0.58 -1.07,-1.28 -1.07,-1.54 0,-0.27 -0.3,-0.5 -0.66,-0.5 -0.36,0 -1.06,-0.3 -1.56,-0.7 -0.5,-0.4 -1.03,-0.7 -1.2,-0.7 -0.17,0 -0.75,-0.4 -1.31,-0.89 l -1.03,-0.88 -1.2,1.99 a 35,35 0 0 1 -2.64,3.7 c -1.5,1.77 -5.18,4.78 -5.67,4.62 -0.7,-0.22 -2.47,1.16 -3.93,3.06 -1.82,2.36 -7.02,6.83 -8.25,7.1 -0.46,0.1 -1.08,0.6 -1.39,1.1 -0.52,0.87 -0.52,1.1 0.07,3 a 10,10 0 0 0 1.65,3.14 3.2,3.2 0 0 1 1.01,2.21 c 0,0.7 0.27,1.37 0.7,1.74 1.14,0.97 0.92,2.57 -0.52,3.97 -0.68,0.66 -1.24,1.07 -1.24,0.91 0,-0.16 -0.25,-0.08 -0.57,0.18 -0.3,0.26 -0.96,0.53 -1.45,0.6 -1.28,0.17 -2.36,0.97 -3.5,2.62 -0.97,1.4 -1,1.61 -1.04,5.9 -0.04,5.5 0.03,5.1 -1.02,6.23 q -0.9,0.95 -0.9,2.22 c 0,0.7 -0.24,1.58 -0.53,1.96 a 3,3 0 0 0 -0.51,1.5 c 0,0.78 0.11,0.81 2.62,0.81 1.45,0 2.72,-0.15 2.84,-0.35 0.12,-0.2 0.5,-0.35 0.85,-0.35 0.97,0 2.59,-0.92 3.74,-2.12 1.77,-1.85 2.7,-2.11 7.3,-2.11 3.41,0 4.23,0.1 4.4,0.53 0.1,0.3 0.03,0.73 -0.17,0.98 -0.47,0.56 -0.18,0.98 1.13,1.66 1.05,0.54 1.3,0.97 1.94,3.38 l 0.38,1.43 h 2.39 c 2.68,0 4.86,0.51 5.69,1.34 0.63,0.63 4.45,0.79 4.81,0.2"
       id="PR" />
    <path
       d="m 412.68,210.58 c 1.48,-0.16 2.68,-0.5 3.22,-0.93 0.47,-0.38 1,-0.68 1.16,-0.69 0.28,0 1.02,-1.43 2.59,-5 0.77,-1.76 0.7,-1.72 4.23,-2.18 3.76,-0.49 4.44,-0.7 5.2,-1.59 0.48,-0.58 0.78,-1.4 0.79,-2.22 q 0,-1.3 0.93,-2.39 c 0.88,-1.04 0.93,-1.3 0.97,-5.4 0.04,-3.73 0.16,-4.52 0.84,-5.82 0.43,-0.82 0.7,-1.5 0.57,-1.5 -0.11,0 0,-0.25 0.26,-0.57 0.42,-0.5 1.71,-1.17 5.49,-2.82 1.34,-0.59 1.62,-1.18 0.97,-2.07 a 3.5,3.5 0 0 1 -0.5,-1.77 c 0,-0.76 -0.32,-1.41 -1.03,-2.1 -1.14,-1.09 -1.77,-3.04 -2.04,-6.3 q -0.29,-3.44 1.86,-3.42 c 0.7,0 1.82,-0.77 4.22,-2.91 0.39,-0.35 1.28,-1.1 1.98,-1.68 1.93,-1.58 1.94,-2.25 0.11,-4.2 a 13,13 0 0 1 -2.07,-2.9 5,5 0 0 0 -1.07,-1.7 c -0.31,-0.26 -1.05,-1.19 -1.64,-2.06 -0.6,-0.88 -1.86,-2.3 -2.81,-3.16 -1.66,-1.49 -1.74,-1.64 -1.74,-3.4 0,-1 -0.19,-2.03 -0.42,-2.26 -0.24,-0.24 -0.47,-1.6 -0.52,-3.1 l -0.1,-2.66 1.44,-1.55 c 0.79,-0.86 1.54,-1.52 1.67,-1.49 0.47,0.14 2.15,-1.24 2.4,-1.97 0.45,-1.35 0.44,-1.75 -0.11,-3.03 -0.3,-0.7 -0.62,-2.53 -0.73,-4.08 -0.18,-2.73 -0.23,-2.88 -1.64,-4.34 -1.3,-1.34 -1.46,-1.71 -1.5,-3.32 -0.04,-1.45 -0.22,-1.93 -0.89,-2.45 a 3,3 0 0 0 -1.28,-0.65 c -0.24,0 -0.72,-0.14 -1.06,-0.32 a 26,26 0 0 0 -3.78,-1.5 8,8 0 0 1 -1.75,-0.73 c -0.18,-0.15 -0.7,-0.28 -1.13,-0.28 -0.43,0 -0.88,-0.15 -1,-0.35 -0.12,-0.2 -0.72,-0.35 -1.32,-0.35 -1.4,0 -2.39,-0.9 -2.39,-2.18 0,-0.75 -0.7,-1.85 -2.7,-4.21 -1.48,-1.76 -2.95,-3.28 -3.26,-3.37 -0.31,-0.09 -0.88,-0.35 -1.27,-0.56 -4.58,-2.52 -5.17,-2.7 -10.19,-2.97 -1.98,-0.1 -3.27,-0.03 -3.5,0.21 -0.49,0.48 -4.01,0.5 -4.3,0.03 -0.12,-0.2 -0.6,-0.36 -1.06,-0.36 -0.46,0 -0.94,-0.16 -1.06,-0.35 -0.48,-0.77 -1.23,-0.34 -1.23,0.7 0,2.53 -1.14,7.62 -1.97,8.84 a 5,5 0 0 0 -0.86,1.78 c 0,0.28 -0.22,0.83 -0.49,1.22 -0.26,0.38 -0.7,1.39 -0.94,2.23 -0.26,0.84 -0.67,1.61 -0.93,1.7 -0.25,0.1 -0.46,0.4 -0.46,0.67 0,0.26 -0.4,1.35 -0.88,2.4 a 16,16 0 0 0 -0.88,2.2 c 0,0.14 -0.28,0.56 -0.62,0.94 -0.54,0.6 -0.6,1.33 -0.5,5.98 0.06,2.91 0.25,5.55 0.41,5.87 0.17,0.31 0.46,1.63 0.65,2.93 0.47,3.12 1.28,4.75 2.71,5.43 0.64,0.3 1.44,0.86 1.78,1.23 0.34,0.38 0.8,0.68 1.04,0.68 0.24,0 0.7,0.32 1.05,0.7 0.34,0.38 0.96,0.8 1.37,0.93 q 1.04,0.31 3.92,3.22 c 0.73,0.74 1.36,2.66 2.32,7.15 0.23,1.06 0.54,2.26 0.69,2.64 a 17,17 0 0 1 1.05,6.18 c 0,2.98 -0.51,5.03 -1.65,6.56 -0.45,0.6 -0.82,1.22 -0.82,1.39 0,0.44 -1.47,1.92 -1.92,1.92 -0.21,0 -0.8,0.44 -1.28,0.97 -0.5,0.54 -1.38,1.38 -1.97,1.87 l -1.07,0.89 0.16,4.57 c 0.18,4.99 -0.38,8.05 -1.71,9.38 -0.75,0.74 -0.88,1.37 -0.29,1.37 0.21,0 1.2,0.84 2.2,1.86 1,1.03 2.44,2.34 3.19,2.91 1.26,0.98 1.37,1.22 1.6,3.35 0.21,2.12 1.14,4.19 1.9,4.22 0.3,0.01 3.84,2.4 4.13,2.78 0.1,0.13 0.8,0.76 1.54,1.4 1.76,1.5 3.05,3.94 3.05,5.73 v 1.4 l 1.16,-0.48 c 0.64,-0.27 2.22,-0.6 3.51,-0.74"
       id="OP" />
    <path
       d="m 260.2,242.68 a 23,23 0 0 1 2.86,-1.54 c 1.3,-0.61 2.44,-1.35 2.55,-1.65 0.24,-0.63 3.76,-0.78 3.76,-0.16 0,0.2 0.14,0.28 0.32,0.17 0.18,-0.11 0.43,0.1 0.55,0.47 0.15,0.48 0.43,0.62 0.95,0.48 q 0.72,-0.18 1.07,0.4 c 0.18,0.32 0.47,0.5 0.66,0.38 0.18,-0.1 0.33,-0.05 0.33,0.14 0,0.19 0.31,0.26 0.7,0.16 0.5,-0.13 0.7,-0.01 0.7,0.4 0,0.33 0.17,0.5 0.36,0.38 0.2,-0.12 0.35,-0.04 0.35,0.17 0,0.21 0.16,0.3 0.36,0.18 0.2,-0.12 0.35,-0.1 0.35,0.07 0,0.15 0.63,0.28 1.41,0.28 h 1.41 v -1.46 c 0,-2.26 0.78,-2.6 6.13,-2.6 3.16,0 4.44,0.13 4.54,0.44 0.1,0.27 0.7,0.39 1.67,0.32 1.6,-0.12 2.5,-0.5 3.6,-1.55 a 2.5,2.5 0 0 1 1.5,-0.62 c 0.6,0 1.73,-0.86 3.74,-2.85 2.69,-2.66 2.86,-2.92 2.5,-3.72 a 4.9,4.9 0 0 1 0.13,-4.01 4,4 0 0 0 0.52,-1.72 c 0,-0.46 0.3,-1.34 0.67,-1.94 0.36,-0.6 0.85,-1.9 1.09,-2.87 0.23,-0.97 0.88,-2.63 1.44,-3.7 0.56,-1.07 1.11,-2.5 1.23,-3.2 0.2,-1.1 0.12,-1.3 -0.69,-1.66 -0.5,-0.23 -0.9,-0.57 -0.9,-0.76 0,-0.19 -0.4,-0.77 -0.89,-1.3 -0.48,-0.52 -0.88,-1.14 -0.88,-1.38 0,-0.24 -0.24,-0.63 -0.53,-0.87 -0.29,-0.24 -0.53,-0.67 -0.53,-0.94 a 7,7 0 0 0 -0.7,-1.97 c -0.88,-1.81 -0.94,-5.28 -0.13,-8.03 0.3,-1.07 0.71,-3.05 0.9,-4.4 0.87,-6.52 0.65,-5.9 2.31,-6.45 0.83,-0.27 1.5,-0.72 1.5,-1 0,-0.27 0.3,-0.8 0.67,-1.17 0.37,-0.37 0.79,-1.2 0.93,-1.85 0.24,-1.11 0.71,-2.32 2.31,-5.86 0.85,-1.9 3.16,-5.02 3.71,-5.02 1.04,0 1.55,-6.4 0.74,-9.19 l -0.56,-1.92 h -4.39 c -5.02,0 -5.75,-0.32 -5.94,-2.6 -0.1,-1.09 -0.28,-1.34 -1.2,-1.64 -1.52,-0.49 -2.14,-1.08 -2.38,-2.26 -0.19,-0.93 -0.38,-1.04 -2.6,-1.42 -1.32,-0.23 -3.15,-0.5 -4.06,-0.6 -1.95,-0.23 -3.45,-1.42 -3.45,-2.74 0,-1.43 -1.1,-3.38 -2.06,-3.62 -0.46,-0.12 -3.89,-0.1 -7.6,0.03 -5.62,0.2 -6.96,0.16 -8.01,-0.28 -1.25,-0.52 -3.85,-3.06 -3.85,-3.75 0,-0.2 -0.17,-0.35 -0.38,-0.35 -0.21,0 -1.07,-0.48 -1.92,-1.06 a 11,11 0 0 0 -1.72,-1.06 c -0.1,0 -0.89,-0.47 -1.75,-1.06 -1.95,-1.31 -3.76,-3.34 -3.76,-4.2 0,-0.74 -1.2,-2.3 -3.44,-4.48 q -1.5,-1.45 -1.5,-2.37 c 0,-0.98 0.26,-0.87 -4.81,-2.15 a 24,24 0 0 0 -4.85,-0.55 h -2.68 v 1.19 c 0,0.65 -0.24,1.86 -0.53,2.69 -0.77,2.17 -0.66,3.08 0.53,4.58 a 7,7 0 0 1 1.05,1.61 c 0,0.15 0.22,0.53 0.49,0.83 1.06,1.24 1.73,4.49 1.5,7.34 -0.4,5.12 -0.7,6.25 -2.17,8.18 -0.76,1 -1.57,1.74 -1.79,1.66 -0.22,-0.08 -0.6,0.27 -0.84,0.78 -0.25,0.52 -0.58,1.18 -0.76,1.48 -0.17,0.29 -0.45,0.86 -0.63,1.27 -0.28,0.62 -1,1.17 -1.8,1.35 -0.09,0.02 -0.6,0.32 -1.11,0.67 -0.75,0.5 -0.95,0.91 -0.94,1.93 0,0.72 -0.16,1.91 -0.35,2.66 -0.2,0.74 -0.3,1.9 -0.24,2.56 0.06,0.66 -0.02,1.2 -0.17,1.2 -0.15,0 -0.38,0.51 -0.5,1.14 -0.41,2.05 -0.4,2.56 0.05,2.47 0.25,-0.05 0.44,0.08 0.44,0.29 0,0.21 0.16,0.27 0.36,0.15 0.2,-0.12 0.35,-0.04 0.35,0.18 0,0.22 0.16,0.3 0.35,0.18 0.65,-0.4 0.51,2.4 -0.17,3.5 -0.58,0.93 -1.2,2.88 -1.36,4.32 -0.1,0.9 0.1,1.35 1.02,2.25 1.12,1.09 1.36,2.07 0.73,3.09 -0.14,0.23 -0.16,0.74 -0.04,1.12 0.5,1.59 0.5,2.4 0,2.82 -0.29,0.24 -0.44,0.58 -0.33,0.75 0.11,0.17 0.02,0.31 -0.2,0.31 -0.23,0 -0.35,0.43 -0.29,0.97 0.06,0.54 0.3,0.94 0.53,0.9 0.23,-0.05 0.51,0.2 0.62,0.55 0.16,0.48 0.47,0.6 1.26,0.48 0.62,-0.09 1.05,0 1.05,0.23 0,0.2 0.22,0.3 0.49,0.2 0.3,-0.12 0.56,0.12 0.69,0.6 0.11,0.45 0.31,0.7 0.44,0.57 0.5,-0.49 1.2,0.81 1.2,2.2 0,1.5 0.55,2.97 1,2.7 0.13,-0.08 0.45,0.07 0.7,0.34 0.25,0.27 0.35,0.5 0.22,0.5 -0.13,0 -0.02,0.25 0.23,0.56 0.26,0.3 0.52,0.9 0.58,1.31 0.07,0.42 0.27,0.91 0.46,1.1 0.45,0.45 0.45,1.72 0,1.43 -0.35,-0.2 -0.4,0.21 -0.54,4.92 -0.03,1.25 -0.23,2.16 -0.48,2.24 -0.22,0.08 -0.63,0.36 -0.9,0.62 -0.26,0.27 -0.56,0.4 -0.67,0.28 -0.12,-0.11 -0.31,0.22 -0.44,0.74 q -0.24,0.94 -0.81,0.82 c -0.32,-0.07 -0.86,0.19 -1.2,0.57 -0.34,0.38 -0.61,0.54 -0.62,0.36 0,-0.36 -0.68,0.61 -0.7,1 0,0.14 0.24,0.16 0.53,0.05 q 0.52,-0.2 0.53,0.38 c 0,0.33 0.14,0.5 0.32,0.4 0.17,-0.11 0.4,0.02 0.5,0.3 0.12,0.3 0.48,0.43 0.92,0.3 0.4,-0.1 0.73,-0.02 0.73,0.18 0,0.2 0.3,0.28 0.66,0.19 0.78,-0.2 0.96,0.35 0.94,2.97 0,1.02 0.09,1.85 0.21,1.85 0.12,0 0.31,0.34 0.42,0.74 0.1,0.41 0.36,0.64 0.57,0.51 0.21,-0.13 0.37,-0.08 0.37,0.11 0,0.19 0.32,0.26 0.71,0.16 0.67,-0.18 0.7,-0.01 0.7,3.02 0,2.57 0.1,3.17 0.49,3.02 0.27,-0.1 0.57,0.04 0.68,0.32 q 0.2,0.5 1.15,0.32 0.96,-0.18 1.27,0.38 c 0.17,0.31 0.55,0.48 0.84,0.37 0.43,-0.17 0.51,0.28 0.51,2.66 0,3.08 0.6,5.68 1.33,5.68 0.24,0 0.44,0.25 0.44,0.55 0,0.3 0.13,0.47 0.3,0.36 0.17,-0.11 0.6,0.43 0.97,1.19 0.36,0.75 0.78,1.29 0.93,1.2 0.15,-0.09 0.27,0.09 0.27,0.4 0,0.31 0.14,0.49 0.31,0.38 0.17,-0.11 0.39,0.09 0.48,0.44 0.13,0.5 0.45,0.6 1.71,0.48 a 5,5 0 0 0 2.08,-0.57"
       id="AC" />
    <path
       d="m 420.6,255.89 q 1.44,0 1.64,0.52 c 0.12,0.3 0.44,0.43 0.75,0.32 0.3,-0.12 0.54,-0.04 0.54,0.18 0,0.21 0.17,0.39 0.37,0.39 0.21,0 0.28,-0.15 0.17,-0.34 -0.11,-0.18 0.1,-0.5 0.49,-0.7 0.8,-0.43 3.2,-0.5 3.2,-0.1 0,0.14 0.32,0.46 0.71,0.7 0.39,0.25 0.69,0.33 0.66,0.18 q -0.2,-1.41 0.84,-1.83 a 6,6 0 0 0 1.65,-1.22 c 0.47,-0.51 1.21,-0.92 1.65,-0.92 0.44,0 0.9,-0.16 1.02,-0.36 0.12,-0.2 0.75,-0.35 1.4,-0.35 1.38,0 1.72,-0.59 1.17,-2.04 -0.63,-1.67 -0.2,-2.2 1.8,-2.2 0.97,0 1.86,-0.15 1.98,-0.35 0.12,-0.2 0.53,-0.35 0.9,-0.35 0.5,0 0.69,-0.24 0.69,-0.9 0,-1 0.2,-1.11 2.64,-1.42 3.5,-0.45 6.53,-0.55 6.53,-0.23 0,0.18 0.44,0.34 0.98,0.36 0.54,0.02 1.2,0.07 1.46,0.14 0.94,0.23 0.7,-0.61 -0.3,-1.06 -1.15,-0.5 -1.44,-1.52 -1.02,-3.59 0.21,-1.03 0.11,-1.38 -0.6,-2.14 -0.99,-1.02 -1.15,-2.62 -0.31,-2.94 0.3,-0.12 1.56,-0.21 2.8,-0.21 1.92,0 2.27,-0.1 2.46,-0.7 0.14,-0.45 0.53,-0.71 1.06,-0.71 1.06,0 1.38,-0.5 0.74,-1.15 -0.28,-0.28 -0.55,-1.2 -0.6,-2.06 a 4.6,4.6 0 0 0 -0.59,-2.15 5,5 0 0 1 -0.68,-1.99 c -0.18,-1.35 -0.14,-1.43 1.17,-2.04 a 7,7 0 0 0 1.94,-1.27 c 0.31,-0.35 0.83,-0.63 1.14,-0.63 0.32,0 0.58,-0.15 0.58,-0.33 0,-0.18 0.31,-0.43 0.69,-0.55 a 10,10 0 0 0 2.35,-1.79 c 0.91,-0.86 1.94,-1.57 2.29,-1.57 0.34,0 0.72,-0.16 0.84,-0.35 0.12,-0.2 1,-0.35 1.97,-0.35 1.7,0 2.06,-0.23 1.42,-0.9 a 4.4,4.4 0 0 1 -0.45,-1.8 c -0.12,-1.38 -0.05,-1.5 1.03,-1.92 1.02,-0.4 1.15,-0.6 1.15,-1.8 q 0,-1.35 -0.49,-1.34 c -0.26,0 -0.69,-0.25 -0.93,-0.55 q -0.46,-0.56 -0.82,-0.17 c -0.2,0.2 -1.92,0.36 -3.9,0.36 -3.09,0 -3.61,-0.09 -4.3,-0.74 -0.7,-0.65 -1.2,-0.73 -4.33,-0.71 l -3.53,0.02 -0.55,-1.1 a 6,6 0 0 1 -0.55,-2.05 c 0,-0.52 -0.32,-1.24 -0.7,-1.59 -0.4,-0.35 -0.71,-0.5 -0.71,-0.34 0,0.16 -0.48,-0.16 -1.06,-0.72 -0.58,-0.56 -1.06,-1.38 -1.06,-1.83 0,-0.77 -0.12,-0.81 -2.5,-0.81 -1.97,0 -2.73,0.15 -3.53,0.73 -0.57,0.4 -1.03,0.61 -1.03,0.48 0,-0.14 -0.33,0.17 -0.73,0.68 -0.4,0.51 -0.95,0.93 -1.22,0.93 -0.27,0 -0.66,0.32 -0.87,0.71 -0.21,0.4 -0.51,0.64 -0.66,0.55 -0.15,-0.1 -0.69,0.05 -1.2,0.31 -0.64,0.34 -2.17,0.46 -5.09,0.43 l -4.16,-0.06 -0.11,-0.97 c -0.11,-0.95 -0.55,-1.27 -0.91,-0.68 -0.1,0.16 -1.18,0.33 -2.39,0.38 a 10,10 0 0 0 -2.57,0.31 c -0.35,0.23 -0.51,0.28 -1.18,0.39 -0.16,0.02 -0.58,0.87 -0.94,1.9 -1.02,2.86 -1.8,4.15 -3.08,5.01 -1.1,0.74 -1.87,0.96 -5.38,1.48 -0.76,0.11 -1.86,0.47 -2.45,0.8 l -1.06,0.59 0.1,3.65 c 0.08,3.22 0,3.83 -0.71,5.22 -0.45,0.86 -1.18,1.71 -1.62,1.88 -0.44,0.17 -0.8,0.5 -0.8,0.76 0,0.54 2,4.46 2.68,5.24 0.27,0.3 0.49,1.23 0.49,2.07 0,1.16 0.27,1.89 1.19,3.14 1.25,1.72 1.68,3.3 1.72,6.22 0.03,2.88 -0.44,4.68 -1.37,5.3 -0.64,0.41 -0.84,0.86 -0.84,1.92 0,1.05 -0.24,1.62 -1.06,2.43 -1.22,1.22 -1.36,1.83 -0.36,1.57 0.71,-0.19 1.78,0.6 1.78,1.3 0,0.23 0.23,0.65 0.52,0.94 0.29,0.29 0.53,0.43 0.53,0.3 0,-0.12 0.2,-0.1 0.44,0.06 0.25,0.15 0.9,0.22 1.45,0.16 0.69,-0.07 1.16,0.12 1.5,0.61 0.74,1.06 2.58,1.13 3.69,0.15 0.62,-0.56 1.34,-0.8 2.34,-0.8"
       id="RO" />
    <path
       d="m 346.56,257.83 c 0.12,-2.32 0.74,-3.35 2.03,-3.35 0.43,0 1.4,-0.31 2.15,-0.7 a 59,59 0 0 1 2.59,-1.23 c 0.68,-0.3 1.7,-0.85 2.3,-1.22 a 5,5 0 0 1 1.65,-0.7 c 0.6,-0.03 2.1,-1.8 2.51,-2.94 0.28,-0.8 2.78,-0.86 3.42,-0.1 0.24,0.3 0.85,0.54 1.36,0.54 0.51,0 1.33,0.32 1.81,0.7 0.72,0.57 1.45,0.7 3.98,0.7 3.03,0 3.1,0.03 3.52,0.98 0.83,1.85 3,3.23 5.13,3.25 1.12,0 1.84,0.27 2.74,0.98 0.9,0.73 1.6,0.97 2.8,0.98 1.33,0 1.73,0.19 2.55,1.13 0.54,0.62 1.37,1.17 1.86,1.23 q 0.9,0.08 1,0.92 c 0.1,0.67 0.3,0.8 1.2,0.7 0.87,-0.09 1.17,-0.34 1.47,-1.23 0.21,-0.61 0.81,-1.45 1.34,-1.86 0.71,-0.56 0.97,-1.1 1.05,-2.23 0.1,-1.41 0.17,-1.5 1.31,-1.6 0.68,-0.07 1.7,0.15 2.35,0.5 1.13,0.6 1.15,0.6 2.29,-0.35 0.9,-0.76 1.43,-0.94 2.58,-0.85 1.28,0.1 1.61,-0.06 2.95,-1.36 1.17,-1.14 1.5,-1.73 1.5,-2.63 0,-0.71 0.32,-1.5 0.82,-2.06 1.04,-1.15 1.8,-4.03 1.3,-4.95 -0.19,-0.37 -0.35,-1.1 -0.35,-1.61 0,-0.53 -0.55,-1.7 -1.23,-2.63 -0.96,-1.3 -1.24,-2.02 -1.24,-3.2 0,-0.83 -0.22,-1.76 -0.48,-2.07 -1.22,-1.4 -2.7,-4.85 -2.7,-6.3 0,-1.3 0.15,-1.6 1.04,-2.1 a 5,5 0 0 0 1.59,-1.77 c 0.61,-1.3 0.75,-4.86 0.2,-5.2 -0.2,-0.12 -0.35,-0.75 -0.35,-1.41 0,-0.66 -0.16,-1.29 -0.35,-1.4 -0.19,-0.13 -0.25,-0.9 -0.13,-1.77 a 3.6,3.6 0 0 0 -0.6,-2.9 c -1.24,-2.03 -3.98,-4.48 -7.08,-6.3 a 9,9 0 0 1 -1.71,-1.73 4,4 0 0 1 -1.07,-3.04 c 0,-0.93 -0.17,-1.8 -0.38,-1.93 a 2,2 0 0 1 -0.61,-0.81 19,19 0 0 0 -2.57,-2.79 c -2.17,-2.05 -3.14,-2.64 -3.14,-1.88 0,0.17 -0.67,0.66 -1.49,1.09 a 8,8 0 0 0 -1.85,1.22 c -0.2,0.26 -1.03,0.56 -1.85,0.68 -1.82,0.27 -4.23,1.87 -5.35,3.55 a 5,5 0 0 1 -1.06,1.26 24,24 0 0 0 -2.67,2.3 c -1.35,1.25 -2.62,2.28 -2.82,2.28 -0.21,0 -0.58,0.32 -0.82,0.7 -0.24,0.4 -0.67,0.71 -0.96,0.71 -0.29,0 -0.66,0.29 -0.85,0.64 -0.2,0.35 -1.03,0.86 -1.87,1.11 -0.83,0.26 -2.13,0.88 -2.88,1.38 -1.32,0.87 -1.57,0.9 -8.12,1.04 -3.7,0.07 -6.9,0.28 -7.08,0.45 -0.45,0.42 -5.6,0.41 -6.03,-0.01 -0.19,-0.19 -2.09,-0.61 -4.22,-0.95 -2.13,-0.34 -4.1,-0.77 -4.37,-0.98 -0.67,-0.52 -3.5,-1.23 -4.94,-1.25 -1.24,-0.02 -5.68,-2 -5.68,-2.55 0,-0.17 -0.4,-0.46 -0.88,-0.64 -0.49,-0.19 -0.89,-0.58 -0.89,-0.87 0,-0.29 -0.32,-0.74 -0.71,-0.98 -0.62,-0.39 -1.29,-1.55 -2.47,-4.33 -0.17,-0.39 -0.4,-1.66 -0.53,-2.84 -0.17,-1.65 -0.4,-2.24 -0.97,-2.6 a 89,89 0 0 0 -6.08,-3.25 c -0.58,-0.3 -1.4,-0.75 -1.84,-1.03 -0.68,-0.43 -0.84,-0.42 -1.23,0.06 -0.25,0.3 -0.97,0.76 -1.6,1 -1.24,0.5 -1.31,0.71 -1.65,5.13 -0.11,1.36 -0.51,3.35 -0.9,4.41 a 13,13 0 0 0 -0.7,3.53 c -0.01,1.54 1.26,5.3 2.06,6.1 0.22,0.22 0.4,0.59 0.4,0.82 0,0.24 0.8,1.24 1.8,2.23 l 1.8,1.8 -0.14,2.06 c -0.1,1.3 -0.52,2.83 -1.16,4.14 l -1.3,2.7 c -0.17,0.33 -0.3,0.96 -0.3,1.4 a 5,5 0 0 1 -0.7,1.95 c -0.39,0.63 -0.88,1.9 -1.1,2.82 a 8,8 0 0 1 -0.77,2.13 q -0.37,0.46 0.05,0.87 c 0.22,0.22 0.4,1.14 0.4,2.05 0,1.67 -0.52,2.5 -2.43,3.86 -0.67,0.47 -0.71,0.67 -0.38,1.85 0.21,0.73 0.56,1.32 0.78,1.32 0.22,0 0.8,0.47 1.3,1.05 1.07,1.23 6.55,4.12 8.42,4.44 1.2,0.21 6.6,2.51 7.84,3.34 1.29,0.87 2.81,1.35 5.05,1.59 2.58,0.27 3.06,0.72 3.06,2.86 0,1.44 2.76,4.76 5.05,6.06 1.4,0.8 3.22,1.02 3.6,0.42 0.33,-0.55 3.81,-0.42 5.02,0.18 0.6,0.3 1.17,0.78 1.29,1.08 0.15,0.4 0.6,0.51 1.7,0.43 l 1.5,-0.1 z"
       id="TL" />
    <rect
       style="overflow:visible;stroke:#181922;stroke-width:0.0777968"
       id="ADD1"
       width="0.0087967115"
       height="0.0092156027"
       x="4.1330047"
       y="1.3218616"
       rx="0.24528243"
       ry="0.0092156027" />
    <rect
       style="overflow:visible;stroke:#181922;stroke-width:0.0777968"
       id="ADD2"
       width="0.0087967115"
       height="0.0092156027"
       x="4.2347665"
       y="1.3218616"
       rx="0.24528243"
       ry="0.0092156027" />
    <rect
       style="overflow:visible;stroke:#181922;stroke-width:0.0777968"
       id="ADD3"
       width="0.0087967115"
       height="0.0092156027"
       x="4.329742"
       y="1.3218616"
       rx="0.24528243"
       ry="0.0092156027" />
    <rect
       style="overflow:visible;stroke:#181922;stroke-width:0.0777968"
       id="ADD4"
       width="0.0087967115"
       height="0.0092156027"
       x="4.4315038"
       y="1.3218616"
       rx="0.24528243"
       ry="0.0092156027" />
  </g>
  <g
     id="text"
     style="font-size: 13px; stroke-width: 0px; font-weight: bold; fill: white; text-align: center; cursor: pointer; pointer-events: none; user-select: none; -webkit-user-select: none;"
     transform="translate(-549.794,31.272239)">
    <text
       x="657.05273"
       y="259.19968"
       xml:space="preserve"
       text-anchor="middle"
       style="color:#000000;font-style:normal;font-variant:normal;font-weight:bold;font-stretch:normal;text-align:center;text-anchor:middle;white-space:pre;display:inline;visibility:visible;fill:#ffffff;fill-opacity:1;stroke-width:2.77167;stroke-dasharray:none"
       id="KO-text">KO</text>
    <text
       x="633.81152"
       y="142.60463"
       xml:space="preserve"
       text-anchor="middle"
       style="color:#000000;font-style:normal;font-variant:normal;font-weight:bold;font-stretch:normal;text-align:center;text-anchor:middle;white-space:pre;display:inline;visibility:visible;fill:#ffffff;fill-opacity:1;stroke-width:2.77167;stroke-dasharray:none"
       id="CA-text">CA</text>
    <text
       x="647.00751"
       y="31.553169"
       xml:space="preserve"
       text-anchor="middle"
       style="color:#000000;font-style:normal;font-variant:normal;font-weight:bold;font-stretch:normal;text-align:center;text-anchor:middle;white-space:pre;display:inline;visibility:visible;fill:#ffffff;fill-opacity:1;stroke-width:2.77167;stroke-dasharray:none"
       id="CM-text">CM</text>
    <text
       x="770.4231"
       y="43.543678"
       xml:space="preserve"
       text-anchor="middle"
       style="color:#000000;font-style:normal;font-variant:normal;font-weight:bold;font-stretch:normal;text-align:center;text-anchor:middle;white-space:pre;display:inline;visibility:visible;fill:#ffffff;fill-opacity:1;stroke-width:2.77167;stroke-dasharray:none"
       id="CE-text">CE</text>
    <text
       x="744.81848"
       y="109.82621"
       xml:space="preserve"
       text-anchor="middle"
       style="color:#000000;font-style:normal;font-variant:normal;font-weight:bold;font-stretch:normal;text-align:center;text-anchor:middle;white-space:pre;display:inline;visibility:visible;fill:#ffffff;fill-opacity:1;stroke-width:2.77167;stroke-dasharray:none"
       id="AR-text">AR</text>
    <text
       x="903.70496"
       y="100.9434"
       xml:space="preserve"
       text-anchor="middle"
       style="color:#000000;font-style:normal;font-variant:normal;font-weight:bold;font-stretch:normal;text-align:center;text-anchor:middle;white-space:pre;display:inline;visibility:visible;fill:#ffffff;fill-opacity:1;stroke-width:2.77167;stroke-dasharray:none"
       id="ST-text">ST</text>
    <text
       x="904.10339"
       y="217.45558"
       xml:space="preserve"
       text-anchor="middle"
       style="color:#000000;font-style:normal;font-variant:normal;font-weight:bold;font-stretch:normal;text-align:center;text-anchor:middle;white-space:pre;display:inline;visibility:visible;fill:#ffffff;fill-opacity:1;stroke-width:2.77167;stroke-dasharray:none"
       id="AC-text">AC</text>
    <text
       x="804.8363"
       y="258.13367"
       xml:space="preserve"
       text-anchor="middle"
       style="color:#000000;font-style:normal;font-variant:normal;font-weight:bold;font-stretch:normal;text-align:center;text-anchor:middle;white-space:pre;display:inline;visibility:visible;fill:#ffffff;fill-opacity:1;stroke-width:2.77167;stroke-dasharray:none"
       id="BL-text">BL</text>
    <text
       x="1013.2057"
       y="265.8027"
       xml:space="preserve"
       text-anchor="middle"
       style="color:#000000;font-style:normal;font-variant:normal;font-weight:bold;font-stretch:normal;text-align:center;text-anchor:middle;white-space:pre;display:inline;visibility:visible;fill:#ffffff;fill-opacity:1;stroke-width:2.77167;stroke-dasharray:none"
       id="TL-text">TL</text>
    <text
       x="1115.1575"
       y="270.16501"
       xml:space="preserve"
       text-anchor="middle"
       style="color:#000000;font-style:normal;font-variant:normal;font-weight:bold;font-stretch:normal;text-align:center;text-anchor:middle;white-space:pre;display:inline;visibility:visible;fill:#ffffff;fill-opacity:1;stroke-width:2.77167;stroke-dasharray:none"
       id="RO-text">RO</text>
    <text
       x="1146.0212"
       y="205.58119"
       xml:space="preserve"
       text-anchor="middle"
       style="color:#000000;font-style:normal;font-variant:normal;font-weight:bold;font-stretch:normal;text-align:center;text-anchor:middle;white-space:pre;display:inline;visibility:visible;fill:#ffffff;fill-opacity:1;stroke-width:2.77167;stroke-dasharray:none"
       id="PR-text">PR</text>
    <text
       x="1092.4614"
       y="159.95012"
       xml:space="preserve"
       text-anchor="middle"
       style="color:#000000;font-style:normal;font-variant:normal;font-weight:bold;font-stretch:normal;text-align:center;text-anchor:middle;white-space:pre;display:inline;visibility:visible;fill:#ffffff;fill-opacity:1;stroke-width:2.77167;stroke-dasharray:none"
       id="OP-text">OP</text>
    <text
       x="1011.3597"
       y="182.96249"
       xml:space="preserve"
       text-anchor="middle"
       style="color:#000000;font-style:normal;font-variant:normal;font-weight:bold;font-stretch:normal;text-align:center;text-anchor:middle;white-space:pre;display:inline;visibility:visible;fill:#ffffff;fill-opacity:1;stroke-width:2.77167;stroke-dasharray:none"
       id="ES-text">ES</text>
    <text
       x="1000.1935"
       y="91.53891"
       xml:space="preserve"
       text-anchor="middle"
       style="color:#000000;font-style:normal;font-variant:normal;font-weight:bold;font-stretch:normal;text-align:center;text-anchor:middle;white-space:pre;display:inline;visibility:visible;fill:#ffffff;fill-opacity:1;stroke-width:2.77167;stroke-dasharray:none"
       id="LA-text">LA</text>
    <text
       x="1069.7313"
       y="68.592545"
       xml:space="preserve"
       text-anchor="middle"
       style="color:#000000;font-style:normal;font-variant:normal;font-weight:bold;font-stretch:normal;text-align:center;text-anchor:middle;white-space:pre;display:inline;visibility:visible;fill:#ffffff;fill-opacity:1;stroke-width:2.77167;stroke-dasharray:none"
       id="MA-text"
       inkscape:label="MA-text">MA</text>
    <text
       x="1152.4558"
       y="130.99527"
       xml:space="preserve"
       text-anchor="middle"
       style="color:#000000;font-style:normal;font-variant:normal;font-weight:bold;font-stretch:normal;text-align:center;text-anchor:middle;white-space:pre;display:inline;visibility:visible;fill:#ffffff;fill-opacity:1;stroke-width:2.77167;stroke-dasharray:none"
       id="text48"
       inkscape:label="NQ-text">NQ</text>
    <text
       x="1212.0092"
       y="187.56456"
       xml:space="preserve"
       text-anchor="middle"
       style="color:#000000;font-style:normal;font-variant:normal;font-weight:bold;font-stretch:normal;text-align:center;text-anchor:middle;white-space:pre;display:inline;visibility:visible;fill:#ffffff;fill-opacity:1;stroke-width:2.77167;stroke-dasharray:none"
       id="DF-text">DF</text>
  </g>
</svg>
